<svg width="25" height="24" viewBox="0 0 25 24" fill="none" xmlns="http://www.w3.org/2000/svg">
<path d="M19.6777 6.70995V3.61314C19.6777 1.62125 18.2755 0 16.5181 0H7.90428C6.14686 0 4.71593 1.62067 4.71593 3.61314V6.70937H1.38722C0.621113 6.70937 0 7.41335 0 8.28167V11.6996C0 12.5685 0.621113 13.2719 1.38722 13.2719H1.80061L3.31637 22.7098C3.43617 23.4569 4.01101 24 4.68097 24H19.7419C20.4124 24 20.9862 23.4569 21.1065 22.7092L22.6213 13.2719H23.0069C23.773 13.2719 24.3941 12.5685 24.3941 11.6996V8.28167C24.3941 7.41335 23.773 6.70937 23.0069 6.70937L19.6777 6.70995ZM7.28574 3.61314C7.28574 3.23318 7.56904 2.91266 7.90428 2.91266H16.5196C16.8544 2.91266 17.1089 3.23318 17.1089 3.61314V6.70937H7.28574V3.61314ZM9.2046 18.381C9.2046 18.9853 8.77836 19.4748 8.24517 19.4748C7.71249 19.4748 7.28574 18.9853 7.28574 18.381V12.3762C7.28574 11.7718 7.71249 11.2829 8.24517 11.2829C8.77887 11.2829 9.2046 11.773 9.2046 12.3762V18.381ZM13.1729 18.381C13.1729 18.9853 12.7462 19.4748 12.2135 19.4748C11.6808 19.4748 11.2536 18.9853 11.2536 18.381V12.3762C11.2536 11.7718 11.6808 11.2829 12.2135 11.2829C12.7467 11.2829 13.1729 11.773 13.1729 12.3762V18.381ZM17.1413 18.381C17.1413 18.9853 16.7145 19.4748 16.1824 19.4748C15.6492 19.4748 15.2224 18.9853 15.2224 18.381V12.3762C15.2224 11.7718 15.6492 11.2829 16.1824 11.2829C16.7145 11.2829 17.1413 11.773 17.1413 12.3762V18.381Z" fill="#E93F32"/>
</svg>
