<svg width="19" height="19" viewBox="0 0 19 19" fill="none" xmlns="http://www.w3.org/2000/svg">
<path d="M4.8179 18.9328C3.68797 18.8814 3.07415 18.6934 2.66588 18.5341C2.12491 18.3235 1.73923 18.0728 1.33322 17.6673C0.927215 17.2619 0.675929 16.8762 0.466431 16.3352C0.307189 15.927 0.119149 15.3132 0.0677624 14.1832C0.0112937 12.9618 0 12.5953 0 9.50085C0 6.40637 0.0124231 6.04045 0.0671977 4.8179C0.118584 3.68797 0.307754 3.07528 0.465866 2.66588C0.676494 2.12491 0.92778 1.73923 1.33266 1.33266C1.7381 0.927215 2.12379 0.675365 2.66532 0.465866C3.07359 0.306625 3.6874 0.118584 4.81734 0.0671977C6.03932 0.0112937 6.40637 0 9.49972 0C12.5942 0 12.9601 0.0124231 14.1827 0.0671977C15.3126 0.118584 15.9253 0.307754 16.3347 0.465866C16.8757 0.675365 17.2613 0.927215 17.6673 1.33266C18.0733 1.7381 18.3235 2.12435 18.5341 2.66532C18.6934 3.07359 18.8814 3.6874 18.9328 4.81734C18.9887 6.03988 19 6.4058 19 9.50028C19 12.5936 18.9887 12.9607 18.9328 14.1832C18.8814 15.3132 18.6922 15.927 18.5341 16.3352C18.3235 16.8762 18.0728 17.2619 17.6673 17.6673C17.2619 18.0728 16.8757 18.3235 16.3347 18.5341C15.9264 18.6934 15.3126 18.8814 14.1827 18.9328C12.9612 18.9887 12.5942 19 9.49972 19C6.40637 19 6.03932 18.9893 4.8179 18.9328Z" fill="url(#paint0_radial_79_1057)"/>
<path d="M4.8179 18.9328C3.68797 18.8814 3.07415 18.6934 2.66588 18.5341C2.12491 18.3235 1.73923 18.0728 1.33322 17.6673C0.927215 17.2619 0.675929 16.8762 0.466431 16.3352C0.307189 15.927 0.119149 15.3132 0.0677624 14.1832C0.0112937 12.9618 0 12.5953 0 9.50085C0 6.40637 0.0124231 6.04045 0.0671977 4.8179C0.118584 3.68797 0.307754 3.07528 0.465866 2.66588C0.676494 2.12491 0.92778 1.73923 1.33266 1.33266C1.7381 0.927215 2.12379 0.675365 2.66532 0.465866C3.07359 0.306625 3.6874 0.118584 4.81734 0.0671977C6.03932 0.0112937 6.40637 0 9.49972 0C12.5942 0 12.9601 0.0124231 14.1827 0.0671977C15.3126 0.118584 15.9253 0.307754 16.3347 0.465866C16.8757 0.675365 17.2613 0.927215 17.6673 1.33266C18.0733 1.7381 18.3235 2.12435 18.5341 2.66532C18.6934 3.07359 18.8814 3.6874 18.9328 4.81734C18.9887 6.03988 19 6.4058 19 9.50028C19 12.5936 18.9887 12.9607 18.9328 14.1832C18.8814 15.3132 18.6922 15.927 18.5341 16.3352C18.3235 16.8762 18.0728 17.2619 17.6673 17.6673C17.2619 18.0728 16.8757 18.3235 16.3347 18.5341C15.9264 18.6934 15.3126 18.8814 14.1827 18.9328C12.9612 18.9887 12.5942 19 9.49972 19C6.40637 19 6.03932 18.9893 4.8179 18.9328Z" fill="url(#paint1_radial_79_1057)"/>
<path d="M7.16801 9.54002C7.16801 8.24062 8.22109 7.18698 9.52049 7.18698C10.8199 7.18698 11.8735 8.24062 11.8735 9.54002C11.8735 10.8394 10.8199 11.8931 9.52049 11.8931C8.22109 11.8931 7.16801 10.8394 7.16801 9.54002ZM5.896 9.54002C5.896 11.5418 7.51868 13.1645 9.52049 13.1645C11.5223 13.1645 13.145 11.5418 13.145 9.54002C13.145 7.53821 11.5223 5.91553 9.52049 5.91553C7.51868 5.91553 5.89605 7.5381 5.89605 9.54002H5.896ZM12.4415 5.77182C12.4414 5.93934 12.491 6.10313 12.5841 6.24246C12.6771 6.38179 12.8093 6.49041 12.9641 6.55458C13.1188 6.61875 13.2891 6.63559 13.4534 6.60297C13.6178 6.57036 13.7687 6.48975 13.8872 6.37133C14.0057 6.25292 14.0865 6.10203 14.1192 5.93773C14.152 5.77344 14.1353 5.60312 14.0712 5.44832C14.0072 5.29352 13.8987 5.16119 13.7594 5.06806C13.6201 4.97494 13.4564 4.92519 13.2889 4.92513H13.2885C13.064 4.92523 12.8486 5.01446 12.6898 5.17321C12.531 5.33196 12.4417 5.54726 12.4415 5.77182ZM6.66883 15.2856C5.98064 15.2543 5.6066 15.1396 5.35802 15.0428C5.02847 14.9145 4.79333 14.7617 4.54611 14.5148C4.29889 14.2679 4.14586 14.033 4.01813 13.7035C3.92123 13.455 3.8066 13.0808 3.77532 12.3927C3.7411 11.6486 3.73426 11.4251 3.73426 9.54014C3.73426 7.65516 3.74166 7.43228 3.77532 6.68762C3.80666 5.99944 3.92214 5.62601 4.01813 5.37682C4.14643 5.04727 4.29923 4.81213 4.54611 4.56491C4.793 4.31769 5.0279 4.16466 5.35802 4.03693C5.60648 3.94003 5.98064 3.8254 6.66883 3.79412C7.41286 3.7599 7.63636 3.75306 9.52049 3.75306C11.4046 3.75306 11.6284 3.76035 12.373 3.79423C13.0612 3.82557 13.4346 3.94105 13.6838 4.03704C14.0134 4.16478 14.2485 4.31814 14.4957 4.56503C14.7429 4.81191 14.8954 5.04738 15.0237 5.37693C15.1206 5.62539 15.2352 5.99955 15.2665 6.68774C15.3007 7.43239 15.3076 7.65527 15.3076 9.54025C15.3076 11.4252 15.3007 11.6481 15.2665 12.3928C15.2352 13.0809 15.12 13.455 15.0237 13.7036C14.8954 14.0331 14.7426 14.2683 14.4957 14.5149C14.2488 14.7616 14.0134 14.9146 13.6838 15.0429C13.4353 15.1398 13.0612 15.2544 12.373 15.2857C11.629 15.3199 11.4055 15.3268 9.52049 15.3268C7.63551 15.3268 7.41263 15.3199 6.66883 15.2857V15.2856ZM6.61038 2.52419C5.85895 2.55841 5.34548 2.67756 4.89707 2.85205C4.43295 3.03224 4.03953 3.27398 3.64668 3.66621C3.25383 4.05844 3.01271 4.45192 2.83252 4.9166C2.65803 5.3653 2.53888 5.87849 2.50466 6.62991C2.46988 7.38253 2.46191 7.62314 2.46191 9.54002C2.46191 11.4569 2.46988 11.6975 2.50466 12.4501C2.53888 13.2016 2.65803 13.7148 2.83252 14.1635C3.01271 14.6276 3.25389 15.0218 3.64668 15.4138C4.03948 15.8059 4.43239 16.0473 4.89707 16.228C5.34633 16.4025 5.85895 16.5216 6.61038 16.5559C7.36339 16.5901 7.60361 16.5986 9.52049 16.5986C11.4374 16.5986 11.678 16.5906 12.4306 16.5559C13.1821 16.5216 13.6952 16.4025 14.1439 16.228C14.608 16.0473 15.0014 15.8061 15.3943 15.4138C15.7872 15.0216 16.0278 14.6276 16.2085 14.1635C16.383 13.7148 16.5027 13.2016 16.5363 12.4501C16.5705 11.697 16.5785 11.4569 16.5785 9.54002C16.5785 7.62314 16.5705 7.38253 16.5363 6.62991C16.5021 5.87843 16.383 5.36502 16.2085 4.9166C16.0278 4.45248 15.7865 4.05907 15.3943 3.66621C15.0021 3.27336 14.608 3.03224 14.1445 2.85205C13.6952 2.67756 13.182 2.55785 12.4312 2.52419C11.6784 2.4898 11.4379 2.48145 9.52134 2.48145C7.60474 2.48145 7.36367 2.48941 6.61066 2.52419" fill="white"/>
<defs>
<radialGradient id="paint0_radial_79_1057" cx="0" cy="0" r="1" gradientUnits="userSpaceOnUse" gradientTransform="translate(1.22966 18.5838) scale(24.1229)">
<stop offset="0.09" stop-color="#FA8F21"/>
<stop offset="0.78" stop-color="#D82D7E"/>
</radialGradient>
<radialGradient id="paint1_radial_79_1057" cx="0" cy="0" r="1" gradientUnits="userSpaceOnUse" gradientTransform="translate(13.1606 17.9737) scale(21.2284)">
<stop offset="0.64" stop-color="#8C3AAA" stop-opacity="0"/>
<stop offset="1" stop-color="#8C3AAA"/>
</radialGradient>
</defs>
</svg>
