<svg width="17" height="17" viewBox="0 0 17 17" fill="none" xmlns="http://www.w3.org/2000/svg">
<path fill-rule="evenodd" clip-rule="evenodd" d="M5.3198 0.194037C4.012 0.228537 3.0187 0.382336 2.0714 0.965936C1.3256 1.42554 0.649396 2.18634 0.331396 3.23424C-0.0234039 4.40354 0.0235962 5.65454 0.0151962 6.93634C0.00669618 8.24894 -0.0208035 9.63864 0.0292965 10.9449C0.0796965 12.2575 0.212197 13.2207 0.802597 14.1745C2.1194 16.3023 4.4399 16.2266 6.7578 16.2299C7.9379 16.2315 9.6634 16.2658 10.7796 16.2199C12.0464 16.1678 13.0749 16.0323 13.9997 15.44C16.1628 14.0548 16.0636 11.8981 16.0673 9.48084C16.0694 8.14894 16.058 6.82424 16.0381 5.49514C16.0179 4.14484 15.8797 3.24213 15.2766 2.24603C13.9767 0.0988339 11.6047 0.173034 9.3248 0.176434C7.9924 0.178434 6.6491 0.159037 5.3198 0.194037ZM7.75329 5.51083C9.321 5.35103 10.5599 6.54063 10.6951 7.92933C10.7773 8.77383 10.4486 9.54093 10.0326 9.96363C9.8138 10.1859 9.6038 10.3963 9.2828 10.5646C7.5469 11.4746 5.4363 10.286 5.3057 8.44403C5.1919 6.83973 6.316 5.65723 7.75329 5.51083ZM12.1055 2.94804C11.6685 3.06944 11.2172 3.54984 11.3778 4.11824C11.4948 4.53234 11.984 4.98053 12.5345 4.83333C12.9544 4.72093 13.4124 4.23704 13.2628 3.67054C13.1528 3.25424 12.6666 2.79214 12.1055 2.94804ZM7.7492 4.08893C6.6143 4.16503 5.8291 4.55003 5.0797 5.28123C5.0154 5.34393 5.001 5.35854 4.9502 5.42134C4.6035 5.84854 4.3794 6.12494 4.1575 6.67993C3.5143 8.28903 4.004 10.2055 5.2136 11.2503C5.5606 11.5499 5.9394 11.8393 6.467 12.0467C7.5319 12.4651 8.8726 12.4217 9.8912 11.8942C12.4742 10.5566 12.8925 7.03163 10.7888 5.13474C10.0749 4.49103 9.1181 3.99723 7.7492 4.08893Z" fill="white" fill-opacity="0.5"/>
</svg>
