<?xml version="1.0" encoding="UTF-8"?>
<!DOCTYPE svg PUBLIC "-//W3C//DTD SVG 1.1//EN" "http://www.w3.org/Graphics/SVG/1.1/DTD/svg11.dtd">
<!-- Creator: CorelDRAW 2021.5 -->
<svg xmlns="http://www.w3.org/2000/svg" xml:space="preserve" width="80.17mm" height="49.9388mm" version="1.1" style="shape-rendering:geometricPrecision; text-rendering:geometricPrecision; image-rendering:optimizeQuality; fill-rule:evenodd; clip-rule:evenodd"
viewBox="0 0 8017 4993.88"
 xmlns:xlink="http://www.w3.org/1999/xlink"
 xmlns:xodm="http://www.corel.com/coreldraw/odm/2003">
 <defs>
  <style type="text/css">
   <![CDATA[
    .fil0 {fill:#E3E3E3}
    .fil4 {fill:#E93F32}
    .fil3 {fill:white}
    .fil2 {fill:white}
    .fil1 {fill:#E3E3E3;fill-rule:nonzero}
    .fil5 {fill:#E93F32;fill-rule:nonzero}
    .fil6 {fill:#E93F32;fill-rule:nonzero}
   ]]>
  </style>
 </defs>
 <g id="Слой_x0020_1">
  <metadata id="CorelCorpID_0Corel-Layer"/>
  <g id="_2684415033008">
   <g>
    <path class="fil0" d="M3727.37 664.73c180.72,-314.05 470.36,-495.87 471.38,-496.51 56.93,-35.84 132.15,-18.74 167.99,38.18 4.93,7.84 8.86,16.01 11.82,24.39 38.61,109.08 63.86,190.65 82.68,292.94 8.64,46.95 15.67,97.27 21.76,155.75 287.15,-220.93 624.33,-278.08 625.52,-278.28 66.4,-11.33 129.44,33.33 140.77,99.73 1.95,11.42 2.24,22.74 1.05,33.72 -6.19,113.38 -14.17,197.38 -35.12,295.37 -9.93,46.41 -22.75,95.62 -39.72,152.46 349.53,-94.37 681.95,-18.31 683.11,-18.07 65.88,14.23 107.75,79.19 93.53,145.08 -2.8,12.94 -7.56,24.94 -13.9,35.79 -48.39,100.78 -87.69,174.67 -144.19,256.67 -27.29,39.58 -57.92,80.2 -94.83,125.72 359.01,46.74 637.37,244.43 638.34,245.11 55.07,38.47 68.52,114.34 30.05,169.42 -5.42,7.76 -11.59,14.7 -18.32,20.77l0.18 0.22c-86.01,77.28 -151.68,131.8 -238.99,188.33 -40.24,26.07 -84.16,51.89 -135.98,79.95 314.07,180.73 495.89,470.37 496.53,471.39 35.84,56.92 18.74,132.14 -38.18,167.99 -7.84,4.93 -16.01,8.86 -24.39,11.81 -109.1,38.62 -190.67,63.87 -292.96,82.68 -46.96,8.65 -97.26,15.67 -155.74,21.75 220.94,287.17 278.09,624.36 278.29,625.55 11.33,66.4 -33.33,129.44 -99.73,140.77 -11.42,1.95 -22.74,2.24 -33.72,1.05 -113.37,-6.19 -197.38,-14.17 -295.37,-35.12 -46.41,-9.93 -95.64,-22.75 -152.46,-39.72 94.35,349.53 18.31,681.94 18.07,683.09 -14.23,65.89 -79.19,107.76 -145.08,93.53 -12.94,-2.8 -24.94,-7.54 -35.78,-13.88 -100.76,-48.38 -174.68,-87.69 -256.68,-144.19 -39.58,-27.29 -80.2,-57.92 -125.72,-94.84 -46.74,359.01 -244.44,637.38 -245.11,638.35 -38.47,55.07 -114.34,68.52 -169.42,30.05 -7.76,-5.42 -14.7,-11.59 -20.78,-18.34l-0.21 0.2c-77.28,-86.01 -131.8,-151.68 -188.35,-238.99 -26.06,-40.25 -51.87,-84.16 -79.93,-135.98 -180.73,314.05 -470.37,495.88 -471.39,496.51 -56.93,35.84 -132.15,18.74 -167.99,-38.18 -4.93,-7.83 -8.86,-16 -11.82,-24.38 -38.61,-109.06 -63.86,-190.64 -82.69,-292.95 -8.64,-46.95 -15.65,-97.25 -21.74,-155.74 -287.16,220.94 -624.36,278.09 -625.54,278.29 -66.4,11.33 -129.44,-33.33 -140.77,-99.73 -1.95,-11.42 -2.24,-22.74 -1.05,-33.72 6.19,-113.37 14.16,-197.38 35.12,-295.37 9.91,-46.4 22.75,-95.64 39.72,-152.47 -349.53,94.35 -681.94,18.31 -683.09,18.06 -65.89,-14.23 -107.76,-79.19 -93.54,-145.07 2.8,-12.94 7.57,-24.96 13.9,-35.81 48.4,-100.75 87.69,-174.64 144.18,-256.64 27.28,-39.6 57.92,-80.2 94.83,-125.74 -359.02,-46.73 -637.37,-244.43 -638.34,-245.11 -55.08,-38.46 -68.52,-114.33 -30.05,-169.41 5.42,-7.76 11.58,-14.7 18.32,-20.78l-0.19 -0.21c86.02,-77.29 151.68,-131.8 238.99,-188.35 40.25,-26.06 84.17,-51.87 135.99,-79.94 -314.06,-180.72 -495.88,-470.36 -496.51,-471.39 -35.85,-56.92 -18.75,-132.14 38.18,-167.98 7.83,-4.94 16,-8.86 24.38,-11.82 109.09,-38.61 190.65,-63.86 292.94,-82.69 46.96,-8.64 97.26,-15.66 155.74,-21.75 -220.93,-287.15 -278.08,-624.33 -278.28,-625.52 -11.33,-66.4 33.33,-129.44 99.73,-140.77 11.41,-1.95 22.74,-2.24 33.72,-1.05 113.37,6.19 197.36,14.17 295.37,35.1 46.39,9.92 95.59,22.74 152.4,39.7 -93.95,-349.36 -17.76,-682.37 -17.52,-683.54 14.49,-65.63 79.45,-107.07 145.07,-92.58 10.42,2.29 20.23,5.89 29.31,10.53 103.86,49.74 179.05,89.45 262.68,147.07 39.58,27.28 80.2,57.91 125.73,94.82 46.75,-359.01 244.43,-637.35 245.1,-638.32 38.47,-55.07 114.34,-68.52 169.42,-30.05 7.76,5.42 14.7,11.59 20.78,18.32l0.21 -0.18c77.29,86.01 131.8,151.66 188.35,238.97 26.06,40.25 51.87,84.17 79.94,135.98z"/>
    <g>
     <path class="fil0" d="M4041.58 2012.42c0,0 -408.63,-532.98 -319.8,-994.91 88.83,-461.94 541.87,-746.2 541.87,-746.2 73.42,208.01 95.61,307.5 115.49,648.47 0,0 -335,222.09 -337.56,1092.64z"/>
     <path class="fil0" d="M3829.54 2064.94c0,0 -581.49,-336.04 -676.2,-796.8 -94.71,-460.77 215.07,-896.76 215.07,-896.76 147.43,164.07 206,247.5 354.86,554.91 0,0 -224.52,333.38 106.27,1138.65z"/>
     <path class="fil0" d="M3653.73 2194.6c0,0 -665.81,-87.93 -929.64,-477.38 -263.83,-389.44 -144.48,-910.8 -144.48,-910.8 198.99,95.17 285.04,149.83 540.2,376.88 0,0 -79.84,393.92 533.92,1011.3z"/>
     <path class="fil0" d="M3540.93 2381.67c0,0 -648.78,173.56 -1041.56,-85.28 -392.78,-258.84 -482.03,-786.18 -482.03,-786.18 220.26,11.77 320.68,29.35 643.3,141.46 0,0 76.98,394.49 880.29,730z"/>
     <path class="fil0" d="M3508.31 2597.67c0,0 -532.99,408.62 -994.92,319.8 -461.94,-88.83 -746.2,-541.87 -746.2,-541.87 208.01,-73.42 307.5,-95.61 648.48,-115.49 0,0 222.08,335 1092.64,337.56z"/>
     <path class="fil0" d="M3560.82 2809.71c0,0 -336.04,581.48 -796.8,676.19 -460.76,94.71 -896.76,-215.06 -896.76,-215.06 164.08,-147.43 247.51,-206.01 554.92,-354.86 0,0 333.37,224.51 1138.64,-106.27z"/>
     <path class="fil0" d="M3690.49 2985.51c0,0 -87.94,665.82 -477.39,929.65 -389.44,263.83 -910.8,144.48 -910.8,144.48 95.17,-199 149.84,-285.04 376.88,-540.2 0,0 393.92,79.84 1011.31,-533.93z"/>
     <path class="fil0" d="M3877.56 3098.31c0,0 173.55,648.79 -85.29,1041.57 -258.84,392.78 -786.18,482.03 -786.18,482.03 11.78,-220.27 29.35,-320.68 141.47,-643.31 0,0 394.49,-76.98 730,-880.29z"/>
     <path class="fil0" d="M4093.56 3130.94c0,0 408.62,532.98 319.79,994.92 -88.82,461.93 -541.87,746.19 -541.87,746.19 -73.41,-208 -95.6,-307.5 -115.49,-648.47 0,0 335.01,-222.08 337.57,-1092.64z"/>
     <path class="fil0" d="M4305.6 3078.42c0,0 581.48,336.04 676.19,796.81 94.71,460.76 -215.07,896.76 -215.07,896.76 -147.42,-164.08 -206,-247.51 -354.85,-554.92 0,0 224.51,-333.38 -106.27,-1138.65z"/>
     <path class="fil0" d="M4481.4 2948.76c0,0 665.82,87.94 929.64,477.38 263.83,389.45 144.48,910.8 144.48,910.8 -198.99,-95.17 -285.04,-149.83 -540.2,-376.87 0,0 79.85,-393.92 -533.92,-1011.31z"/>
     <path class="fil0" d="M4594.2 2761.69c0,0 648.79,-173.55 1041.57,85.28 392.78,258.84 482.03,786.19 482.03,786.19 -220.27,-11.78 -320.68,-29.35 -643.31,-141.47 0,0 -76.98,-394.49 -880.29,-730z"/>
     <path class="fil0" d="M4626.82 2545.69c0,0 532.99,-408.62 994.92,-319.79 461.94,88.82 746.2,541.87 746.2,541.87 -208.01,73.41 -307.5,95.6 -648.47,115.48 0,0 -222.09,-335 -1092.65,-337.56z"/>
     <path class="fil0" d="M4574.31 2333.65c0,0 336.04,-581.48 796.8,-676.19 460.77,-94.71 896.76,215.07 896.76,215.07 -164.07,147.42 -247.51,206 -554.91,354.85 0,0 -333.38,-224.51 -1138.65,106.27z"/>
     <path class="fil0" d="M4444.64 2157.85c0,0 87.94,-665.82 477.39,-929.65 389.44,-263.82 910.8,-144.47 910.8,-144.47 -95.17,198.99 -149.83,285.04 -376.88,540.2 0,0 -393.92,-79.85 -1011.31,533.92z"/>
     <path class="fil0" d="M4257.57 2045.05c0,0 -173.55,-648.79 85.29,-1041.57 258.84,-392.78 786.18,-482.03 786.18,-482.03 -11.77,220.27 -29.35,320.68 -141.46,643.31 0,0 -394.49,76.98 -730.01,880.29z"/>
    </g>
    <path class="fil0" d="M297.06 2082l7541 0c98.31,0 178.91,80.54 178.91,179l0 591.51c0,98.45 -80.6,178.99 -178.91,178.99l-7541 0c-98.3,0 -178.9,-80.54 -178.9,-178.99l0 -591.51c0,-98.46 80.6,-179 178.9,-179z"/>
    <path class="fil1" d="M783.2 2251.11l0 497.5 9.53 0c17.79,0 33.36,6.2 46.7,18.59 13.34,12.39 20.02,26.52 20.02,42.41l0 147.72c0,16.52 -6.68,30.98 -20.02,43.37 -13.34,12.39 -28.91,18.58 -46.7,18.58 -17.79,0 -33.36,-6.19 -46.7,-18.58 -13.34,-12.39 -20.01,-26.85 -20.01,-43.37l0 -87.68 -345.96 0c-18.43,0 -34.15,-6.19 -47.18,-18.58 -13.02,-12.39 -19.54,-26.85 -19.54,-43.37l0 -556.59c0,-16.52 6.52,-30.97 19.54,-43.36 13.03,-12.39 28.75,-18.58 47.18,-18.58 17.79,0 33.35,6.19 46.7,18.58 13.34,12.39 20.01,26.84 20.01,43.36l0 497.5 203 0 0 -497.5c0,-16.52 6.67,-30.97 20.02,-43.36 13.34,-12.39 28.91,-18.58 46.7,-18.58 17.79,0 33.35,6.19 46.7,18.58 13.34,12.39 20.01,26.84 20.01,43.36zm524.18 270.67c0,23.51 -6.83,43.53 -20.49,60.05 -13.66,16.52 -36.05,31.13 -67.19,43.84 34.31,13.34 59.09,28.75 74.34,46.22 15.25,17.47 22.87,38.92 22.87,64.33 0,39.39 -16.04,71.48 -48.13,96.26 -32.08,24.78 -78.3,37.17 -138.67,37.17l-137.24 0c-18.42,0 -33.99,-5.88 -46.7,-17.63 -12.7,-11.76 -19.06,-25.58 -19.06,-41.46l0 -363.12c0,-15.88 6.36,-29.7 19.06,-41.45 12.71,-11.76 28.28,-17.64 46.7,-17.64l127.71 0c60.36,0 106.59,12.39 138.67,37.17 32.09,24.78 48.13,56.87 48.13,96.26zm-121.03 199.19c0,-33.67 -22.24,-50.51 -66.72,-50.51l-60.99 0 0 100.07 69.57 0c38.76,0 58.14,-16.52 58.14,-49.56zm-127.71 -233.5l0 94.36 61.94 0c37.49,0 56.23,-14.94 56.23,-44.8 0,-33.04 -19.37,-49.56 -58.13,-49.56l-60.04 0zm540.38 200.15c-21.61,0 -46.07,-1.91 -73.39,-5.72l0 31.45c0,35.58 25.41,53.37 76.24,53.37 25.42,0 54.01,-6.99 85.78,-20.97 7.62,-3.81 17.16,-5.72 28.59,-5.72 20.97,0 36.06,5.4 45.27,16.21 9.22,10.8 13.82,22.87 13.82,36.21 0,15.89 -6.51,29.55 -19.54,40.98 -13.02,11.44 -29.54,20.18 -49.56,26.21 -20.01,6.04 -39.55,10.33 -58.61,12.87 -19.06,2.54 -37.49,3.81 -55.28,3.81 -61.63,0 -110.07,-15.72 -145.34,-47.18 -35.26,-31.45 -52.89,-71.32 -52.89,-119.6l0 -159.17c0,-50.19 17.79,-91.01 53.37,-122.46 35.58,-31.45 85.46,-47.18 149.63,-47.18 61,0 107.38,14.61 139.15,43.84 31.76,29.23 47.65,68.62 47.65,118.18 0,96.58 -61.63,144.87 -184.89,144.87zm-4.77 -98.17c39.39,0 59.09,-17.79 59.09,-53.37 0,-35.58 -19.06,-53.37 -57.18,-53.37 -22.88,0 -40.35,5.56 -52.42,16.68 -12.07,11.12 -18.11,26.21 -18.11,45.27l0 40.98c27.32,2.54 50.19,3.81 68.62,3.81zm498.45 -86.73l0 314.51c0,16.52 -6.36,30.5 -19.06,41.94 -12.71,11.43 -28.28,17.15 -46.7,17.15 -18.43,0 -34,-5.72 -46.7,-17.15 -12.71,-11.44 -19.07,-25.42 -19.07,-41.94l0 -314.51 -70.52 0c-17.79,0 -32.72,-5.56 -44.8,-16.68 -12.07,-11.12 -18.1,-24.62 -18.1,-40.5 0,-15.89 6.03,-29.39 18.1,-40.51 12.08,-11.12 27.01,-16.68 44.8,-16.68l272.57 0c17.79,0 32.72,5.56 44.8,16.68 12.07,11.12 18.1,24.62 18.1,40.51 0,15.88 -6.03,29.38 -18.1,40.5 -12.08,11.12 -27.01,16.68 -44.8,16.68l-70.52 0zm552.77 324.04c-36.21,33.04 -87.04,49.56 -152.49,49.56 -65.44,0 -116.27,-16.52 -152.49,-49.56 -36.21,-33.04 -54.32,-75.61 -54.32,-127.71l0 -142c0,-52.1 18.11,-94.67 54.32,-127.71 36.22,-33.04 87.05,-49.56 152.49,-49.56 65.45,0 116.28,16.52 152.49,49.56 36.22,33.04 54.33,75.61 54.33,127.71l0 142c0,52.1 -18.11,94.67 -54.33,127.71zm-208.24 -80.05c13.02,11.43 31.61,17.15 55.75,17.15 24.15,0 42.73,-5.72 55.76,-17.15 13.02,-11.44 19.53,-27.33 19.53,-47.66l0 -142.96c0,-19.69 -6.51,-35.26 -19.53,-46.7 -13.03,-11.43 -31.61,-17.15 -55.76,-17.15 -24.14,0 -42.73,5.72 -55.75,17.15 -13.03,11.44 -19.54,27.01 -19.54,46.7l0 142.96c0,20.33 6.51,36.22 19.54,47.66zm479.86 -304.98l0 120.08c0,13.98 3.81,24.94 11.44,32.88 7.62,7.94 22.23,11.92 43.84,11.92 13.98,0 37.8,-2.55 71.48,-7.63l0 -157.25c0,-15.89 6.35,-29.55 19.06,-40.99 12.71,-11.43 28.27,-17.15 46.7,-17.15 18.42,0 33.99,5.72 46.7,17.15 12.71,11.44 19.06,25.1 19.06,40.99l0 375.5c0,16.52 -6.35,30.5 -19.06,41.94 -12.71,11.43 -28.28,17.15 -46.7,17.15 -18.43,0 -33.99,-5.72 -46.7,-17.15 -12.71,-11.44 -19.06,-25.42 -19.06,-41.94l0 -114.37c-19.7,6.99 -42.57,10.49 -68.62,10.49 -126.44,0 -189.66,-50.51 -189.66,-151.54l0 -120.08c0,-15.89 6.35,-29.55 19.06,-40.99 12.71,-11.43 28.27,-17.15 46.7,-17.15 18.42,0 33.99,5.72 46.7,17.15 12.71,11.44 19.06,25.1 19.06,40.99zm510.85 375.5c0,16.52 -6.36,30.5 -19.07,41.94 -12.7,11.43 -28.27,17.15 -46.7,17.15 -18.42,0 -33.99,-5.72 -46.7,-17.15 -12.7,-11.44 -19.06,-25.42 -19.06,-41.94l0 -375.5c0,-15.89 6.36,-29.55 19.06,-40.99 12.71,-11.43 28.28,-17.15 46.7,-17.15 18.43,0 34,5.72 46.7,17.15 12.71,11.44 19.07,25.1 19.07,40.99l0 126.75 144.86 0 0 -126.75c0,-15.89 6.35,-29.55 19.06,-40.99 12.71,-11.43 28.28,-17.15 46.7,-17.15 18.43,0 33.99,5.72 46.7,17.15 12.71,11.44 19.06,25.1 19.06,40.99l0 375.5c0,16.52 -6.35,30.5 -19.06,41.94 -12.71,11.43 -28.27,17.15 -46.7,17.15 -18.42,0 -33.99,-5.72 -46.7,-17.15 -12.71,-11.44 -19.06,-25.42 -19.06,-41.94l0 -142 -144.86 0 0 142zm965.45 0c0,16.52 -6.35,30.5 -19.06,41.94 -12.71,11.43 -28.28,17.15 -46.7,17.15 -18.43,0 -33.99,-5.72 -46.7,-17.15 -12.71,-11.44 -19.06,-25.42 -19.06,-41.94l0 -375.5c0,-15.89 6.35,-29.55 19.06,-40.99 12.71,-11.43 28.27,-17.15 46.7,-17.15 18.42,0 33.99,5.72 46.7,17.15 12.71,11.44 19.06,25.1 19.06,40.99l0 375.5zm-437.45 -375.5l0 121.99 78.15 0c126.44,0 189.65,51.78 189.65,155.35 0,46.38 -15.09,83.07 -45.27,110.07 -30.18,27.01 -74.18,40.51 -131.99,40.51l-156.31 0c-18.42,0 -33.99,-5.88 -46.7,-17.63 -12.7,-11.76 -19.06,-25.58 -19.06,-41.46l0 -368.83c0,-15.89 6.36,-29.55 19.06,-40.99 12.71,-11.43 28.28,-17.15 46.7,-17.15 18.43,0 34,5.72 46.7,17.15 12.71,11.44 19.07,25.1 19.07,40.99zm78.15 229.68l-78.15 0 0 89.59 88.63 0c32.4,0 48.61,-14.93 48.61,-44.79 0,-29.87 -19.7,-44.8 -59.09,-44.8zm550.87 206.82c-20.33,0 -37.17,-6.04 -50.51,-18.11 -13.35,-12.07 -20.02,-27 -20.02,-44.79l0 -372.65c0,-16.52 6.2,-30.66 18.59,-42.41 12.39,-11.76 27.8,-17.63 46.22,-17.63 17.79,0 33.36,5.87 46.7,17.63 13.34,11.75 20.02,25.89 20.02,42.41l0 218.25 159.16 -245.89c12.7,-21.6 33.67,-32.4 62.9,-32.4 20.33,0 36.85,5.87 49.56,17.63 12.7,11.75 19.06,26.84 19.06,45.27l0 371.69c0,16.52 -6.36,30.82 -19.06,42.89 -12.71,12.07 -28.28,18.11 -46.7,18.11 -18.43,0 -34,-6.04 -46.7,-18.11 -12.71,-12.07 -19.06,-26.37 -19.06,-42.89l0 -214.44 -158.21 243.99c-15.89,20.96 -36.54,31.45 -61.95,31.45zm141.05 -623.3c19.06,0 37.81,-9.85 56.23,-29.55 10.8,-14.61 25.42,-21.92 43.84,-21.92 14.62,0 26.37,4.61 35.27,13.82 8.89,9.21 11.12,22.4 6.67,39.55 -6.99,25.42 -25.26,46.07 -54.8,61.95 -29.55,15.89 -58.62,23.83 -87.21,23.83 -28.59,0 -57.34,-7.79 -86.25,-23.35 -28.91,-15.57 -47.49,-36.38 -55.75,-62.43 -4.45,-17.15 -2.23,-30.34 6.67,-39.55 8.89,-9.21 20.65,-13.82 35.26,-13.82 19.06,0 33.36,7.31 42.89,21.92 19.7,19.7 38.76,29.55 57.18,29.55zm724.33 183.94l0 188.7c0,43.21 8.73,76.25 26.2,99.12 17.48,22.87 46.86,34.31 88.16,34.31 28.59,0 54.96,-7.62 79.11,-22.87l9.53 -5.72c15.25,-9.53 28.91,-14.3 40.98,-14.3 17.79,0 32.72,5.72 44.79,17.16 12.07,11.44 18.11,24.78 18.11,40.03 0,27.32 -20.01,51.14 -60.04,71.48 -40.03,20.33 -85.78,30.49 -137.24,30.49 -80.7,0 -141.37,-22.07 -182.04,-66.23 -40.66,-44.16 -60.99,-105.32 -60.99,-183.47l0 -188.7c0,-78.15 20.33,-139.31 60.99,-183.47 40.67,-44.16 101.34,-66.23 182.04,-66.23 51.46,0 97.21,10.16 137.24,30.49 40.03,20.34 60.04,44.16 60.04,71.48 0,15.25 -6.04,28.59 -18.11,40.03 -12.07,11.44 -27,17.16 -44.79,17.16 -12.07,0 -25.73,-4.77 -40.98,-14.3l-9.53 -5.72c-23.51,-15.25 -49.88,-22.87 -79.11,-22.87 -41.3,0 -70.68,11.44 -88.16,34.31 -17.47,22.87 -26.2,55.91 -26.2,99.12zm535.62 253.51l-13.34 0 0 124.85c0,16.52 -6.36,30.5 -19.07,41.94 -12.7,11.43 -28.27,17.15 -46.7,17.15 -18.42,0 -33.99,-5.72 -46.7,-17.15 -12.7,-11.44 -19.06,-25.42 -19.06,-41.94l0 -375.5c0,-15.89 6.36,-29.55 19.06,-40.99 12.71,-11.43 28.28,-17.15 46.7,-17.15 18.43,0 34,5.72 46.7,17.15 12.71,11.44 19.07,25.1 19.07,40.99l0 126.75 13.34 0 116.27 -157.25c13.34,-17.79 31.45,-26.69 54.33,-26.69 17.79,0 32.72,4.93 44.79,14.77 12.07,9.85 18.43,22.72 19.06,38.6 0,12.71 -3.49,24.15 -10.48,34.31l-120.09 158.21 120.09 158.21c6.99,10.17 10.48,21.6 10.48,34.31 -0.63,15.88 -6.99,28.75 -19.06,38.6 -12.07,9.85 -27,14.77 -44.79,14.77 -22.88,0 -40.99,-8.89 -54.33,-26.68l-116.27 -157.26zm365.02 16.2l24.78 -263.04c1.27,-15.25 6.99,-28.59 17.16,-40.03 10.16,-11.44 22.87,-17.16 38.12,-17.16l238.27 0c19.69,0 33.99,6.36 42.88,19.07 8.9,12.7 13.35,26.05 13.35,40.02l0 369.79c0,16.52 -6.36,30.5 -19.07,41.94 -12.7,11.43 -28.27,17.15 -46.7,17.15 -18.42,0 -33.99,-5.72 -46.7,-17.15 -12.7,-11.44 -19.06,-25.42 -19.06,-41.94l0 -321.18 -97.21 0 -18.11 210.63c-10.8,111.19 -58.45,166.78 -142.96,166.78 -57.81,0 -86.72,-18.42 -86.72,-55.28 0,-19.69 6.67,-34.94 20.01,-45.74 13.34,-10.8 27.96,-14.62 43.84,-11.44 6.35,1.27 10.48,1.91 12.39,1.91 14.61,0 23.19,-18.11 25.73,-54.33zm863.48 -130.57l0 177.27c0,6.99 0.95,12.55 2.86,16.68 1.9,4.13 3.81,6.67 5.71,7.63 1.91,0.95 5.56,2.38 10.96,4.28 5.41,1.91 9.06,3.18 10.96,3.82 14.62,5.72 21.93,17.79 21.93,36.21 0,33.04 -22.88,49.56 -68.63,49.56 -34.94,0 -61.94,-13.34 -81.01,-40.03 -35.58,28.6 -78.46,42.89 -128.66,42.89 -54,0 -95.78,-13.5 -125.33,-40.5 -29.54,-27.01 -44.31,-63.7 -44.31,-110.08l0 -2.86c0,-97.21 62.9,-145.82 188.7,-145.82 29.87,0 54.96,3.18 75.29,9.53l0 -30.5c0,-43.84 -24.14,-65.76 -72.43,-65.76 -18.42,0 -39.07,5.09 -61.95,15.25 -17.15,6.35 -29.22,9.53 -36.21,9.53 -18.43,0 -32.25,-5.72 -41.46,-17.15 -9.21,-11.44 -13.82,-24.15 -13.82,-38.13 0,-26.05 16.04,-45.74 48.13,-59.09 32.09,-13.34 70.37,-20.01 114.84,-20.01 67.99,0 117.39,16.36 148.2,49.08 30.82,32.72 46.23,82.12 46.23,148.2zm-199.19 91.5c-25.42,0 -42.73,4.92 -51.94,14.77 -9.22,9.85 -13.82,23.03 -13.82,39.55l0 2.86c0,15.89 4.6,27.16 13.82,33.83 9.21,6.68 24.3,10.01 45.27,10.01 27.95,0 52.73,-8.26 74.33,-24.78l0 -68.62c-25.41,-5.08 -47.97,-7.62 -67.66,-7.62zm448.89 -281.16l238.27 0c19.69,0 33.99,6.36 42.88,19.07 8.9,12.7 13.35,26.05 13.35,40.02l0 314.51 6.67 0c19.69,0 33.99,6.36 42.89,19.07 8.89,12.7 13.34,26.05 13.34,40.02l0 122.95c0,16.52 -6.35,30.5 -19.06,41.93 -12.71,11.44 -28.28,17.16 -46.7,17.16 -18.43,0 -33.99,-5.72 -46.7,-17.16 -12.71,-11.43 -19.06,-25.41 -19.06,-41.93l0 -74.34 -263.05 0 0 74.34c0,16.52 -6.35,30.5 -19.06,41.93 -12.71,11.44 -28.27,17.16 -46.7,17.16 -18.42,0 -33.99,-5.72 -46.7,-17.16 -12.71,-11.43 -19.06,-25.41 -19.06,-41.93l0 -122.95c0,-13.34 4.29,-26.52 12.87,-39.55 8.57,-13.02 23.03,-19.54 43.36,-19.54 28.59,-22.87 44.79,-70.52 48.61,-142.95l8.57 -173.46c0.64,-14.62 6.2,-27.8 16.68,-39.55 10.49,-11.76 23.35,-17.64 38.6,-17.64zm62.9 232.55c-3.17,57.18 -13.02,104.2 -29.54,141.05l129.61 0 0 -265.9 -95.3 0 -4.77 124.85z"/>
    <g>
     <path class="fil2" d="M3864.92 3520.63c-4.8,17.82 -14.67,33.66 -29.6,47.47 -0.04,0.04 -0.09,0.08 -0.14,0.12l0.14 0.15c-10.03,9.27 -21.45,16.33 -34.25,21.15 -12.47,4.7 -25.36,7.05 -38.58,7.05l-181.66 0c-13.33,0 -26.39,-2.37 -39.15,-7.12 -13.42,-5 -25.31,-12.39 -35.57,-22.15 -21.47,-20.41 -32.21,-45.4 -32.21,-74.9 0,-20.58 3.63,-38.67 10.87,-54.21l-0.11 -0.05c4.64,-10.02 10.26,-20.21 16.79,-30.52 0.04,-0.06 0.08,-0.13 0.12,-0.19l-0.12 -0.08c5.27,-8.29 12.35,-18 21.21,-29.08 7.59,-9.5 14.08,-17.29 19.44,-23.34 6.97,-7.89 13.11,-14.38 18.4,-19.43 1.21,-1.15 2.45,-2.25 3.72,-3.29 7.86,-7.51 12.6,-12.03 13.89,-13.2 8.45,-7.77 16.57,-15.16 24.29,-22.1 1.41,-1.27 2.86,-2.46 4.34,-3.59 0.85,-0.7 1.79,-1.5 2.85,-2.42 0.24,-0.21 0.48,-0.41 0.72,-0.61l8.71 -7.63c-5.35,1.84 -10.58,3.22 -15.65,4.12 -2.21,0.39 -4.41,0.66 -6.6,0.82 -4.42,0.58 -8.44,0.86 -12.08,0.86 -12.23,0 -24.47,-2.18 -36.69,-6.55l-0.08 0.23c-11.37,-4.06 -22.2,-10.34 -32.44,-18.82l-0.13 0.15c-11.57,-9.58 -20.5,-21.12 -26.75,-34.58 -0.96,-2.07 -1.8,-4.17 -2.53,-6.29 -4.43,-11.47 -6.65,-23.32 -6.65,-35.55 0,-49.41 28.53,-84.67 85.58,-105.74 16.83,-6.21 34.29,-10.98 52.32,-14.29 18.51,-3.4 36.37,-5.12 53.51,-5.12 26.74,0 51.49,3.89 74.21,11.64 24.55,8.37 46.1,21.09 64.6,38.1 18.67,17.18 32.78,36.86 42.28,58.98 2.12,4.95 4.01,9.98 5.66,15.1l25.28 -58.34 -0.02 -0.01c4.13,-10.6 9.87,-20.2 17.23,-28.74 6.9,-8 15.1,-14.89 24.61,-20.59 8.5,-5.09 17.31,-8.94 26.4,-11.49 9.75,-2.74 19.42,-4.1 28.96,-4.1 26.89,0 50.81,9.5 71.74,28.5 1.85,1.68 3.58,3.45 5.2,5.28 8.17,8.41 14.62,17.61 19.32,27.54 0.91,1.93 1.72,3.88 2.43,5.85 4.75,11.8 7.14,23.97 7.14,36.45 0,5.69 -0.62,11.96 -1.87,18.8 -0.26,1.45 -0.58,2.87 -0.93,4.28 -1.35,5.87 -3.18,11.41 -5.5,16.59 -0.12,0.27 -0.24,0.53 -0.37,0.79 9.73,4.36 18.77,10.22 27.08,17.52 11.23,9.84 19.81,21.27 25.68,34.2 0.84,1.86 1.58,3.74 2.24,5.63l58.49 -154.2c0.1,-0.26 0.2,-0.52 0.31,-0.78l-0.05 -0.02c9.27,-23.7 24.95,-41.61 46.99,-53.7 1.9,-1.04 3.83,-1.98 5.78,-2.83 9.44,-4.49 19.19,-7.47 29.25,-8.92 11.8,-1.7 23.87,-1.27 36.12,1.28 0.37,0.08 0.73,0.16 1.1,0.24 11.88,2.39 22.86,6.67 32.89,12.78 6.79,4.13 13.03,9.01 18.69,14.62 5.01,-0.71 10.1,-1.06 15.28,-1.06l176.69 0c13.74,0 26.86,2.42 39.41,7.19 12.78,4.87 24.4,12.17 34.79,21.83 10.71,9.93 18.91,21.34 24.57,34.16 5.8,13.14 8.72,27.02 8.72,41.54 0,7.41 -0.8,14.99 -2.42,22.73 -0.29,1.41 -0.63,2.8 -1.01,4.17 -1.39,5.58 -3.21,10.87 -5.45,15.83l0.01 0 -137.49 319.15c-1.11,2.59 -2.37,5.08 -3.76,7.46 -8.66,16.55 -20.47,29.64 -35.43,39.27 -16.9,10.91 -35.98,16.37 -57.21,16.37 -12.25,0 -24.05,-1.81 -35.35,-5.38 -11.58,-3.66 -22.51,-9.32 -32.75,-16.95 -12.49,-9.29 -22.19,-20.79 -29.01,-34.43 -6.91,-13.83 -10.38,-28.35 -10.38,-43.55 0,-15.47 2.96,-29.71 8.85,-42.69 0.32,-0.72 0.66,-1.42 1,-2.12l78.16 -178.45 -21.94 0c-8.78,0 -17.45,-1.11 -26.01,-3.32l-106.22 279.65c-0.1,0.26 -0.2,0.52 -0.31,0.78l0.05 0.02c-4.48,11.45 -10.87,21.86 -19.14,31.22 -8.12,9.2 -17.78,16.82 -28.92,22.75 -10.58,5.66 -21.63,9.47 -33.12,11.36 -11.55,1.9 -23.18,1.88 -34.87,-0.07 -2.38,-0.4 -4.71,-0.91 -6.98,-1.54 -10.97,-2.59 -21.17,-6.68 -30.52,-12.31 -6.18,-3.7 -11.91,-7.98 -17.19,-12.83 -0.9,0.37 -1.82,0.72 -2.74,1.06l0.03 0.08c-12.16,4.47 -24.86,6.72 -38.06,6.72 -13.18,0 -25.87,-2.24 -38.04,-6.72 -1.83,-0.67 -3.62,-1.42 -5.35,-2.23 -10.69,-4.58 -20.34,-10.75 -28.9,-18.45 -2.04,-1.84 -3.94,-3.77 -5.71,-5.79 -7.96,-8.37 -14.3,-17.86 -18.98,-28.41 -2.7,-6.08 -4.78,-12.24 -6.25,-18.47l-56.34 0c-2.9,0 -5.75,-0.1 -8.56,-0.29zm-75.37 -50.87c7.36,6.62 11.04,14.72 11.04,24.29 0,9.57 -3.68,17.77 -11.04,24.58 -7.37,6.81 -16.39,10.21 -27.06,10.21l-181.66 0c-11.41,0 -20.8,-3.5 -28.16,-10.49 -7.36,-7 -11.04,-15.65 -11.04,-25.95 0,-11.05 1.47,-19.7 4.41,-25.95 7,-15.1 16.75,-30.46 29.27,-46.11 12.51,-15.64 23.1,-27.61 31.75,-35.89 8.65,-8.28 22.17,-20.71 40.58,-37.27 1.84,-1.47 8.1,-6.9 18.77,-16.29 10.68,-9.39 17.86,-16.01 21.54,-19.88 3.68,-3.86 9.02,-9.84 16.01,-17.94 6.99,-8.1 11.78,-15.83 14.36,-23.19 2.57,-7.37 3.86,-14.91 3.86,-22.64 0,-14.73 -4.51,-26.78 -13.53,-36.17 -9.01,-9.38 -21.81,-14.08 -38.37,-14.08 -16.93,0 -32.39,2.95 -46.38,8.84 -2.58,1.1 -6.35,3.03 -11.32,5.79 -4.97,2.76 -9.66,4.97 -14.08,6.63 -4.42,1.66 -9.02,2.48 -13.81,2.48 -9.93,0 -18.68,-3.12 -26.22,-9.38 -7.55,-6.26 -11.32,-14.36 -11.32,-24.3 0,-18.03 13.71,-32.11 41.13,-42.24 27.43,-10.12 54.94,-15.18 82.55,-15.18 39.02,0 70.03,10.58 93.04,31.75 23.01,21.16 34.51,47.94 34.51,80.34 0,39.38 -14.54,74.17 -43.62,104.36 -7.36,7.73 -25.58,24.66 -54.66,50.79 -29.08,26.14 -49.33,47.12 -60.74,62.95l123.13 0c10.67,0 19.69,3.31 27.06,9.94zm281.6 -16.57l0 45.28c0,9.94 -3.68,18.22 -11.04,24.85 -7.36,6.62 -16.38,9.94 -27.06,9.94 -10.67,0 -19.69,-3.32 -27.05,-9.94 -7.37,-6.63 -11.05,-14.91 -11.05,-24.85l0 -45.28 -121.47 0c-11.41,0 -20.8,-3.68 -28.16,-11.04 -7.36,-7.36 -11.05,-16.2 -11.05,-26.5 0,-4.79 1.84,-11.23 5.53,-19.33l106.01 -244.61c2.58,-6.62 7.09,-11.87 13.53,-15.73 6.44,-3.87 13.34,-5.8 20.7,-5.8 9.58,0 18.32,3.59 26.23,10.77 7.92,7.18 11.87,15.55 11.87,25.12 0,4.79 -0.73,8.84 -2.21,12.15 -10.67,24.66 -25.67,58.99 -45,102.98 -19.32,43.98 -34.32,78.31 -45,102.97l69.02 0 0 -84.48c0,-9.94 3.68,-18.22 11.05,-24.84 7.36,-6.63 16.38,-9.94 27.05,-9.94 10.31,0 19.24,3.31 26.78,9.94 7.55,6.62 11.32,14.9 11.32,24.84l0 84.48 7.18 0c10.31,0 19.05,3.41 26.23,10.22 7.17,6.81 10.76,14.82 10.76,24.02 0,9.57 -3.59,17.76 -10.76,24.57 -7.18,6.81 -15.92,10.21 -26.23,10.21l-7.18 0zm251.79 -295.4l-141.35 372.15c-3.32,8.47 -8.93,14.82 -16.84,19.05 -7.92,4.24 -16.29,5.62 -25.13,4.15 -10.3,-1.85 -18.59,-6.81 -24.85,-14.91 -6.25,-8.1 -7.91,-16.38 -4.96,-24.85l144.11 -379.89c3.31,-8.46 8.83,-14.81 16.56,-19.05 7.73,-4.23 16.02,-5.43 24.85,-3.59 9.2,1.48 16.75,6.08 22.64,13.81 5.89,7.73 8.47,16.01 7.73,24.85 -0.37,2.94 -1.29,5.7 -2.76,8.28zm270.56 18.22c0,6.63 -1.1,11.96 -3.31,16.01l-137.49 319.15c-6.63,14.73 -18.04,22.09 -34.23,22.09 -10.68,0 -19.97,-2.95 -27.89,-8.84 -7.91,-5.89 -11.87,-13.8 -11.87,-23.74 0,-5.89 0.92,-10.86 2.76,-14.91l120.92 -276.08 -125.34 0c-9.94,0 -18.68,-3.4 -26.22,-10.21 -7.55,-6.81 -11.32,-15.19 -11.32,-25.13 0,-9.57 3.68,-17.85 11.04,-24.84 7.36,-7 16.2,-10.49 26.5,-10.49l176.69 0c11.05,0 20.43,3.58 28.16,10.76 7.73,7.18 11.6,15.92 11.6,26.23z"/>
     <path class="fil1" d="M3789.55 3469.76c7.36,6.62 11.04,14.72 11.04,24.29 0,9.57 -3.68,17.77 -11.04,24.58 -7.37,6.81 -16.39,10.21 -27.06,10.21l-181.66 0c-11.41,0 -20.8,-3.5 -28.16,-10.49 -7.36,-7 -11.04,-15.65 -11.04,-25.95 0,-11.05 1.47,-19.7 4.41,-25.95 7,-15.1 16.75,-30.46 29.27,-46.11 12.51,-15.64 23.1,-27.61 31.75,-35.89 8.65,-8.28 22.17,-20.71 40.58,-37.27 1.84,-1.47 8.1,-6.9 18.77,-16.29 10.68,-9.39 17.86,-16.01 21.54,-19.88 3.68,-3.86 9.02,-9.84 16.01,-17.94 6.99,-8.1 11.78,-15.83 14.36,-23.19 2.57,-7.37 3.86,-14.91 3.86,-22.64 0,-14.73 -4.51,-26.78 -13.53,-36.17 -9.01,-9.38 -21.81,-14.08 -38.37,-14.08 -16.93,0 -32.39,2.95 -46.38,8.84 -2.58,1.1 -6.35,3.03 -11.32,5.79 -4.97,2.76 -9.66,4.97 -14.08,6.63 -4.42,1.66 -9.02,2.48 -13.81,2.48 -9.93,0 -18.68,-3.12 -26.22,-9.38 -7.55,-6.26 -11.32,-14.36 -11.32,-24.3 0,-18.03 13.71,-32.11 41.13,-42.24 27.43,-10.12 54.94,-15.18 82.55,-15.18 39.02,0 70.03,10.58 93.04,31.75 23.01,21.16 34.51,47.94 34.51,80.34 0,39.38 -14.54,74.17 -43.62,104.36 -7.36,7.73 -25.58,24.66 -54.66,50.79 -29.08,26.14 -49.33,47.12 -60.74,62.95l123.13 0c10.67,0 19.69,3.31 27.06,9.94zm281.6 -16.57l0 45.28c0,9.94 -3.68,18.22 -11.04,24.85 -7.36,6.62 -16.38,9.94 -27.06,9.94 -10.67,0 -19.69,-3.32 -27.05,-9.94 -7.37,-6.63 -11.05,-14.91 -11.05,-24.85l0 -45.28 -121.47 0c-11.41,0 -20.8,-3.68 -28.16,-11.04 -7.36,-7.36 -11.05,-16.2 -11.05,-26.5 0,-4.79 1.84,-11.23 5.53,-19.33l106.01 -244.61c2.58,-6.62 7.09,-11.87 13.53,-15.73 6.44,-3.87 13.34,-5.8 20.7,-5.8 9.58,0 18.32,3.59 26.23,10.77 7.92,7.18 11.87,15.55 11.87,25.12 0,4.79 -0.73,8.84 -2.21,12.15 -10.67,24.66 -25.67,58.99 -45,102.98 -19.32,43.98 -34.32,78.31 -45,102.97l69.02 0 0 -84.48c0,-9.94 3.68,-18.22 11.05,-24.84 7.36,-6.63 16.38,-9.94 27.05,-9.94 10.31,0 19.24,3.31 26.78,9.94 7.55,6.62 11.32,14.9 11.32,24.84l0 84.48 7.18 0c10.31,0 19.05,3.41 26.23,10.22 7.17,6.81 10.76,14.82 10.76,24.02 0,9.57 -3.59,17.76 -10.76,24.57 -7.18,6.81 -15.92,10.21 -26.23,10.21l-7.18 0zm251.79 -295.4l-141.35 372.15c-3.32,8.47 -8.93,14.82 -16.84,19.05 -7.92,4.24 -16.29,5.62 -25.13,4.15 -10.3,-1.85 -18.59,-6.81 -24.85,-14.91 -6.25,-8.1 -7.91,-16.38 -4.96,-24.85l144.11 -379.89c3.31,-8.46 8.83,-14.81 16.56,-19.05 7.73,-4.23 16.02,-5.43 24.85,-3.59 9.2,1.48 16.75,6.08 22.64,13.81 5.89,7.73 8.47,16.01 7.73,24.85 -0.37,2.94 -1.29,5.7 -2.76,8.28zm270.56 18.22c0,6.63 -1.1,11.96 -3.31,16.01l-137.49 319.15c-6.63,14.73 -18.04,22.09 -34.23,22.09 -10.68,0 -19.97,-2.95 -27.89,-8.84 -7.91,-5.89 -11.87,-13.8 -11.87,-23.74 0,-5.89 0.92,-10.86 2.76,-14.91l120.92 -276.08 -125.34 0c-9.94,0 -18.68,-3.4 -26.22,-10.21 -7.55,-6.81 -11.32,-15.19 -11.32,-25.13 0,-9.57 3.68,-17.85 11.04,-24.84 7.36,-7 16.2,-10.49 26.5,-10.49l176.69 0c11.05,0 20.43,3.58 28.16,10.76 7.73,7.18 11.6,15.92 11.6,26.23z"/>
    </g>
   </g>
   <g>
    <path class="fil3" d="M3609.22 515.25c180.73,-314.05 470.37,-495.87 471.39,-496.51 56.92,-35.84 132.14,-18.74 167.98,38.18 4.94,7.84 8.86,16 11.82,24.39 38.61,109.08 63.87,190.65 82.68,292.94 8.64,46.95 15.67,97.27 21.76,155.75 287.16,-220.93 624.34,-278.08 625.52,-278.28 66.41,-11.33 129.45,33.33 140.77,99.73 1.95,11.42 2.24,22.74 1.06,33.72 -6.19,113.37 -14.17,197.38 -35.12,295.37 -9.93,46.4 -22.76,95.62 -39.73,152.46 349.54,-94.37 681.96,-18.31 683.11,-18.07 65.89,14.23 107.76,79.19 93.53,145.07 -2.8,12.95 -7.56,24.95 -13.89,35.8 -48.4,100.78 -87.69,174.67 -144.19,256.67 -27.29,39.58 -57.92,80.2 -94.83,125.72 359.01,46.74 637.36,244.43 638.33,245.11 55.08,38.47 68.53,114.34 30.06,169.41 -5.43,7.77 -11.59,14.71 -18.33,20.78l0.19 0.22c-86.01,77.28 -151.68,131.8 -238.99,188.33 -40.24,26.07 -84.17,51.89 -135.98,79.95 314.06,180.73 495.89,470.36 496.52,471.39 35.84,56.92 18.74,132.14 -38.18,167.98 -7.83,4.94 -16,8.86 -24.38,11.82 -109.1,38.61 -190.67,63.87 -292.96,82.68 -46.97,8.64 -97.27,15.67 -155.75,21.75 220.94,287.17 278.1,624.36 278.3,625.55 11.32,66.4 -33.33,129.44 -99.74,140.77 -11.41,1.95 -22.74,2.23 -33.72,1.05 -113.37,-6.19 -197.38,-14.17 -295.37,-35.12 -46.4,-9.93 -95.63,-22.75 -152.45,-39.72 94.35,349.53 18.31,681.94 18.06,683.09 -14.23,65.88 -79.19,107.76 -145.07,93.53 -12.94,-2.8 -24.95,-7.55 -35.79,-13.88 -100.75,-48.38 -174.68,-87.69 -256.68,-144.19 -39.58,-27.29 -80.19,-57.92 -125.72,-94.84 -46.73,359.01 -244.43,637.38 -245.11,638.34 -38.47,55.08 -114.34,68.53 -169.41,30.06 -7.76,-5.43 -14.7,-11.59 -20.78,-18.34l-0.22 0.2c-77.28,-86.01 -131.79,-151.68 -188.34,-238.99 -26.06,-40.26 -51.87,-84.16 -79.94,-135.98 -180.72,314.05 -470.36,495.87 -471.39,496.51 -56.92,35.84 -132.14,18.74 -167.98,-38.18 -4.94,-7.84 -8.86,-16 -11.82,-24.39 -38.61,-109.05 -63.86,-190.63 -82.69,-292.94 -8.65,-46.95 -15.66,-97.25 -21.75,-155.75 -287.15,220.94 -624.35,278.1 -625.53,278.3 -66.41,11.33 -129.45,-33.33 -140.78,-99.74 -1.94,-11.41 -2.23,-22.74 -1.05,-33.72 6.19,-113.37 14.17,-197.37 35.12,-295.36 9.91,-46.41 22.76,-95.64 39.72,-152.48 -349.53,94.36 -681.93,18.31 -683.09,18.07 -65.88,-14.23 -107.76,-79.19 -93.53,-145.07 2.8,-12.94 7.56,-24.96 13.9,-35.82 48.39,-100.74 87.68,-174.63 144.17,-256.63 27.29,-39.6 57.92,-80.2 94.83,-125.74 -359.01,-46.74 -637.37,-244.43 -638.33,-245.11 -55.08,-38.47 -68.53,-114.34 -30.06,-169.41 5.43,-7.76 11.59,-14.71 18.33,-20.78l-0.19 -0.22c86.01,-77.28 151.68,-131.79 238.99,-188.34 40.24,-26.06 84.17,-51.87 135.98,-79.94 -314.05,-180.72 -495.87,-470.36 -496.51,-471.39 -35.84,-56.92 -18.74,-132.14 38.18,-167.98 7.84,-4.94 16,-8.86 24.39,-11.82 109.08,-38.61 190.65,-63.86 292.94,-82.69 46.95,-8.65 97.25,-15.66 155.73,-21.75 -220.92,-287.15 -278.08,-624.34 -278.28,-625.52 -11.33,-66.4 33.33,-129.44 99.74,-140.77 11.41,-1.95 22.74,-2.24 33.72,-1.05 113.37,6.19 197.36,14.17 295.36,35.1 46.39,9.92 95.6,22.74 152.4,39.7 -93.94,-349.36 -17.76,-682.38 -17.51,-683.54 14.48,-65.63 79.44,-107.07 145.07,-92.58 10.42,2.29 20.23,5.89 29.3,10.53 103.87,49.74 179.06,89.45 262.69,147.06 39.58,27.29 80.2,57.92 125.72,94.83 46.75,-359.01 244.43,-637.35 245.11,-638.32 38.47,-55.07 114.34,-68.52 169.41,-30.05 7.77,5.42 14.71,11.58 20.78,18.32l0.22 -0.19c77.28,86.02 131.79,151.67 188.34,238.98 26.06,40.24 51.88,84.17 79.94,135.98z"/>
    <g>
     <path class="fil4" d="M3923.43 1862.94c0,0 -408.62,-532.98 -319.79,-994.92 88.82,-461.93 541.87,-746.19 541.87,-746.19 73.41,208 95.6,307.5 115.48,648.47 0,0 -335,222.09 -337.56,1092.64z"/>
     <path class="fil4" d="M3711.39 1915.46c0,0 -581.48,-336.04 -676.19,-796.81 -94.71,-460.76 215.07,-896.75 215.07,-896.75 147.42,164.07 206,247.5 354.85,554.91 0,0 -224.51,333.38 106.27,1138.65z"/>
     <path class="fil4" d="M3535.59 2045.12c0,0 -665.82,-87.94 -929.65,-477.38 -263.82,-389.45 -144.47,-910.8 -144.47,-910.8 198.99,95.17 285.03,149.83 540.2,376.88 0,0 -79.85,393.92 533.92,1011.3z"/>
     <path class="fil4" d="M3422.79 2232.19c0,0 -648.79,173.56 -1041.57,-85.28 -392.78,-258.84 -482.03,-786.18 -482.03,-786.18 220.27,11.77 320.68,29.35 643.31,141.46 0,0 76.98,394.49 880.29,730z"/>
     <path class="fil4" d="M3390.16 2448.19c0,0 -532.98,408.62 -994.92,319.8 -461.93,-88.83 -746.19,-541.88 -746.19,-541.88 208,-73.41 307.5,-95.6 648.47,-115.48 0,0 222.09,335 1092.64,337.56z"/>
     <path class="fil4" d="M3442.68 2660.23c0,0 -336.04,581.48 -796.8,676.19 -460.77,94.71 -896.76,-215.07 -896.76,-215.07 164.07,-147.42 247.5,-206 554.91,-354.85 0,0 333.38,224.51 1138.65,-106.27z"/>
     <path class="fil4" d="M3572.34 2836.03c0,0 -87.93,665.82 -477.38,929.65 -389.45,263.82 -910.8,144.47 -910.8,144.47 95.17,-198.99 149.83,-285.03 376.88,-540.2 0,0 393.92,79.85 1011.3,-533.92z"/>
     <path class="fil4" d="M3759.41 2948.83c0,0 173.56,648.79 -85.28,1041.57 -258.84,392.78 -786.18,482.03 -786.18,482.03 11.77,-220.27 29.35,-320.68 141.46,-643.31 0,0 394.49,-76.98 730,-880.29z"/>
     <path class="fil4" d="M3975.41 2981.46c0,0 408.62,532.98 319.8,994.92 -88.83,461.93 -541.87,746.19 -541.87,746.19 -73.42,-208 -95.61,-307.5 -115.49,-648.47 0,0 335,-222.09 337.56,-1092.64z"/>
     <path class="fil4" d="M4187.45 2928.94c0,0 581.49,336.04 676.2,796.81 94.71,460.76 -215.07,896.75 -215.07,896.75 -147.43,-164.07 -206.01,-247.5 -354.86,-554.91 0,0 224.51,-333.38 -106.27,-1138.65z"/>
     <path class="fil4" d="M4363.25 2799.28c0,0 665.82,87.94 929.65,477.38 263.83,389.45 144.48,910.8 144.48,910.8 -199,-95.17 -285.04,-149.83 -540.2,-376.88 0,0 79.84,-393.92 -533.93,-1011.3z"/>
     <path class="fil4" d="M4476.05 2612.21c0,0 648.79,-173.56 1041.57,85.28 392.78,258.84 482.03,786.18 482.03,786.18 -220.26,-11.77 -320.68,-29.35 -643.3,-141.46 0,0 -76.99,-394.49 -880.3,-730z"/>
     <path class="fil4" d="M4508.68 2396.21c0,0 532.99,-408.62 994.92,-319.8 461.93,88.83 746.19,541.88 746.19,541.88 -208,73.41 -307.5,95.6 -648.47,115.48 0,0 -222.08,-335 -1092.64,-337.56z"/>
     <path class="fil4" d="M4456.16 2184.17c0,0 336.04,-581.48 796.81,-676.19 460.76,-94.71 896.76,215.07 896.76,215.07 -164.08,147.42 -247.51,206 -554.92,354.85 0,0 -333.38,-224.51 -1138.65,106.27z"/>
     <path class="fil4" d="M4326.5 2008.37c0,0 87.94,-665.82 477.38,-929.65 389.45,-263.82 910.8,-144.47 910.8,-144.47 -95.17,198.99 -149.83,285.03 -376.87,540.2 0,0 -393.92,-79.85 -1011.31,533.92z"/>
     <path class="fil4" d="M4139.43 1895.57c0,0 -173.55,-648.79 85.28,-1041.57 258.84,-392.78 786.19,-482.03 786.19,-482.03 -11.78,220.27 -29.35,320.68 -141.47,643.31 0,0 -394.49,76.98 -730,880.29z"/>
    </g>
    <path class="fil3" d="M178.92 1932.52l7541 0c98.3,0 178.91,80.54 178.91,178.99l0 591.52c0,98.45 -80.61,178.99 -178.91,178.99l-7541 0c-98.3,0 -178.91,-80.54 -178.91,-178.99l0 -591.52c0,-98.45 80.61,-178.99 178.91,-178.99z"/>
    <path class="fil5" d="M665.05 2101.63l0 497.5 9.53 0c17.79,0 33.36,6.2 46.7,18.59 13.34,12.39 20.02,26.52 20.02,42.41l0 147.72c0,16.52 -6.68,30.98 -20.02,43.37 -13.34,12.39 -28.91,18.58 -46.7,18.58 -17.79,0 -33.36,-6.19 -46.7,-18.58 -13.34,-12.39 -20.01,-26.85 -20.01,-43.37l0 -87.68 -345.96 0c-18.43,0 -34.15,-6.19 -47.18,-18.58 -13.02,-12.39 -19.54,-26.85 -19.54,-43.37l0 -556.59c0,-16.52 6.52,-30.97 19.54,-43.36 13.03,-12.39 28.75,-18.58 47.18,-18.58 17.79,0 33.35,6.19 46.7,18.58 13.34,12.39 20.01,26.84 20.01,43.36l0 497.5 203 0 0 -497.5c0,-16.52 6.67,-30.97 20.02,-43.36 13.34,-12.39 28.91,-18.58 46.7,-18.58 17.79,0 33.35,6.19 46.7,18.58 13.34,12.39 20.01,26.84 20.01,43.36zm524.18 270.67c0,23.51 -6.83,43.53 -20.49,60.05 -13.66,16.52 -36.05,31.13 -67.19,43.84 34.31,13.34 59.09,28.75 74.34,46.22 15.25,17.47 22.87,38.92 22.87,64.33 0,39.39 -16.04,71.48 -48.13,96.26 -32.08,24.78 -78.3,37.17 -138.67,37.17l-137.24 0c-18.42,0 -33.99,-5.88 -46.7,-17.63 -12.7,-11.76 -19.06,-25.58 -19.06,-41.46l0 -363.12c0,-15.88 6.36,-29.7 19.06,-41.45 12.71,-11.76 28.28,-17.64 46.7,-17.64l127.71 0c60.36,0 106.59,12.39 138.67,37.17 32.09,24.78 48.13,56.87 48.13,96.26zm-121.03 199.19c0,-33.67 -22.24,-50.51 -66.72,-50.51l-60.99 0 0 100.07 69.57 0c38.76,0 58.14,-16.52 58.14,-49.56zm-127.71 -233.5l0 94.36 61.94 0c37.49,0 56.23,-14.94 56.23,-44.8 0,-33.04 -19.37,-49.56 -58.13,-49.56l-60.04 0zm540.38 200.15c-21.61,0 -46.07,-1.91 -73.39,-5.72l0 31.45c0,35.58 25.41,53.37 76.24,53.37 25.42,0 54.01,-6.99 85.78,-20.97 7.62,-3.81 17.16,-5.72 28.59,-5.72 20.97,0 36.06,5.4 45.27,16.21 9.22,10.8 13.82,22.87 13.82,36.21 0,15.89 -6.51,29.55 -19.54,40.98 -13.02,11.44 -29.54,20.18 -49.56,26.21 -20.01,6.04 -39.55,10.33 -58.61,12.87 -19.06,2.54 -37.49,3.81 -55.28,3.81 -61.63,0 -110.07,-15.72 -145.34,-47.18 -35.26,-31.45 -52.89,-71.32 -52.89,-119.6l0 -159.17c0,-50.19 17.79,-91.01 53.37,-122.46 35.58,-31.45 85.46,-47.18 149.63,-47.18 61,0 107.38,14.61 139.15,43.84 31.76,29.23 47.65,68.62 47.65,118.18 0,96.58 -61.63,144.87 -184.89,144.87zm-4.77 -98.17c39.39,0 59.09,-17.79 59.09,-53.37 0,-35.58 -19.06,-53.37 -57.18,-53.37 -22.88,0 -40.35,5.56 -52.42,16.68 -12.07,11.12 -18.11,26.21 -18.11,45.27l0 40.98c27.32,2.54 50.19,3.81 68.62,3.81zm498.45 -86.73l0 314.51c0,16.52 -6.36,30.5 -19.06,41.94 -12.71,11.43 -28.28,17.15 -46.7,17.15 -18.43,0 -34,-5.72 -46.7,-17.15 -12.71,-11.44 -19.07,-25.42 -19.07,-41.94l0 -314.51 -70.52 0c-17.79,0 -32.72,-5.56 -44.8,-16.68 -12.07,-11.12 -18.1,-24.62 -18.1,-40.5 0,-15.89 6.03,-29.39 18.1,-40.51 12.08,-11.12 27.01,-16.68 44.8,-16.68l272.57 0c17.79,0 32.72,5.56 44.8,16.68 12.07,11.12 18.1,24.62 18.1,40.51 0,15.88 -6.03,29.38 -18.1,40.5 -12.08,11.12 -27.01,16.68 -44.8,16.68l-70.52 0zm552.77 324.04c-36.21,33.04 -87.04,49.56 -152.49,49.56 -65.44,0 -116.27,-16.52 -152.49,-49.56 -36.21,-33.04 -54.32,-75.61 -54.32,-127.71l0 -142c0,-52.1 18.11,-94.67 54.32,-127.71 36.22,-33.04 87.05,-49.56 152.49,-49.56 65.45,0 116.28,16.52 152.49,49.56 36.22,33.04 54.33,75.61 54.33,127.71l0 142c0,52.1 -18.11,94.67 -54.33,127.71zm-208.24 -80.05c13.02,11.43 31.61,17.15 55.75,17.15 24.15,0 42.73,-5.72 55.76,-17.15 13.02,-11.44 19.53,-27.33 19.53,-47.66l0 -142.96c0,-19.69 -6.51,-35.26 -19.53,-46.7 -13.03,-11.43 -31.61,-17.15 -55.76,-17.15 -24.14,0 -42.73,5.72 -55.75,17.15 -13.03,11.44 -19.54,27.01 -19.54,46.7l0 142.96c0,20.33 6.51,36.22 19.54,47.66zm479.86 -304.98l0 120.08c0,13.98 3.81,24.94 11.44,32.88 7.62,7.94 22.23,11.92 43.84,11.92 13.98,0 37.8,-2.55 71.48,-7.63l0 -157.25c0,-15.89 6.35,-29.55 19.06,-40.99 12.71,-11.43 28.27,-17.15 46.7,-17.15 18.42,0 33.99,5.72 46.7,17.15 12.71,11.44 19.06,25.1 19.06,40.99l0 375.5c0,16.52 -6.35,30.5 -19.06,41.94 -12.71,11.43 -28.28,17.15 -46.7,17.15 -18.43,0 -33.99,-5.72 -46.7,-17.15 -12.71,-11.44 -19.06,-25.42 -19.06,-41.94l0 -114.37c-19.7,6.99 -42.57,10.49 -68.62,10.49 -126.44,0 -189.66,-50.51 -189.66,-151.54l0 -120.08c0,-15.89 6.35,-29.55 19.06,-40.99 12.71,-11.43 28.27,-17.15 46.7,-17.15 18.42,0 33.99,5.72 46.7,17.15 12.71,11.44 19.06,25.1 19.06,40.99zm510.85 375.5c0,16.52 -6.36,30.5 -19.07,41.94 -12.7,11.43 -28.27,17.15 -46.7,17.15 -18.42,0 -33.99,-5.72 -46.7,-17.15 -12.7,-11.44 -19.06,-25.42 -19.06,-41.94l0 -375.5c0,-15.89 6.36,-29.55 19.06,-40.99 12.71,-11.43 28.28,-17.15 46.7,-17.15 18.43,0 34,5.72 46.7,17.15 12.71,11.44 19.07,25.1 19.07,40.99l0 126.75 144.86 0 0 -126.75c0,-15.89 6.35,-29.55 19.06,-40.99 12.71,-11.43 28.28,-17.15 46.7,-17.15 18.43,0 33.99,5.72 46.7,17.15 12.71,11.44 19.06,25.1 19.06,40.99l0 375.5c0,16.52 -6.35,30.5 -19.06,41.94 -12.71,11.43 -28.27,17.15 -46.7,17.15 -18.42,0 -33.99,-5.72 -46.7,-17.15 -12.71,-11.44 -19.06,-25.42 -19.06,-41.94l0 -142 -144.86 0 0 142zm965.45 0c0,16.52 -6.35,30.5 -19.06,41.94 -12.71,11.43 -28.28,17.15 -46.7,17.15 -18.43,0 -33.99,-5.72 -46.7,-17.15 -12.71,-11.44 -19.06,-25.42 -19.06,-41.94l0 -375.5c0,-15.89 6.35,-29.55 19.06,-40.99 12.71,-11.43 28.27,-17.15 46.7,-17.15 18.42,0 33.99,5.72 46.7,17.15 12.71,11.44 19.06,25.1 19.06,40.99l0 375.5zm-437.45 -375.5l0 121.99 78.15 0c126.44,0 189.65,51.78 189.65,155.35 0,46.38 -15.09,83.07 -45.27,110.07 -30.18,27.01 -74.18,40.51 -131.99,40.51l-156.31 0c-18.42,0 -33.99,-5.88 -46.7,-17.63 -12.7,-11.76 -19.06,-25.58 -19.06,-41.46l0 -368.83c0,-15.89 6.36,-29.55 19.06,-40.99 12.71,-11.43 28.28,-17.15 46.7,-17.15 18.43,0 34,5.72 46.7,17.15 12.71,11.44 19.07,25.1 19.07,40.99zm78.15 229.68l-78.15 0 0 89.59 88.63 0c32.4,0 48.61,-14.93 48.61,-44.79 0,-29.87 -19.7,-44.8 -59.09,-44.8zm550.87 206.82c-20.33,0 -37.17,-6.04 -50.51,-18.11 -13.35,-12.07 -20.02,-27 -20.02,-44.79l0 -372.65c0,-16.52 6.2,-30.66 18.59,-42.41 12.39,-11.76 27.8,-17.63 46.22,-17.63 17.79,0 33.36,5.87 46.7,17.63 13.34,11.75 20.02,25.89 20.02,42.41l0 218.25 159.16 -245.89c12.7,-21.6 33.67,-32.4 62.9,-32.4 20.33,0 36.85,5.87 49.56,17.63 12.7,11.75 19.06,26.84 19.06,45.27l0 371.69c0,16.52 -6.36,30.82 -19.06,42.89 -12.71,12.07 -28.28,18.11 -46.7,18.11 -18.43,0 -34,-6.04 -46.7,-18.11 -12.71,-12.07 -19.06,-26.37 -19.06,-42.89l0 -214.44 -158.21 243.99c-15.89,20.96 -36.54,31.45 -61.95,31.45zm141.05 -623.3c19.06,0 37.81,-9.85 56.23,-29.55 10.8,-14.61 25.42,-21.92 43.84,-21.92 14.62,0 26.37,4.61 35.27,13.82 8.89,9.21 11.12,22.4 6.67,39.55 -6.99,25.42 -25.26,46.07 -54.8,61.95 -29.55,15.89 -58.62,23.83 -87.21,23.83 -28.59,0 -57.34,-7.79 -86.25,-23.35 -28.91,-15.57 -47.49,-36.38 -55.75,-62.43 -4.45,-17.15 -2.23,-30.34 6.67,-39.55 8.89,-9.21 20.65,-13.82 35.26,-13.82 19.06,0 33.36,7.31 42.89,21.92 19.7,19.7 38.76,29.55 57.18,29.55zm724.33 183.94l0 188.7c0,43.21 8.73,76.25 26.2,99.12 17.48,22.87 46.86,34.31 88.16,34.31 28.59,0 54.96,-7.62 79.11,-22.87l9.53 -5.72c15.25,-9.53 28.91,-14.3 40.98,-14.3 17.79,0 32.72,5.72 44.79,17.16 12.07,11.44 18.11,24.78 18.11,40.03 0,27.32 -20.01,51.14 -60.04,71.48 -40.03,20.33 -85.78,30.49 -137.24,30.49 -80.7,0 -141.37,-22.07 -182.04,-66.23 -40.66,-44.16 -60.99,-105.32 -60.99,-183.47l0 -188.7c0,-78.15 20.33,-139.31 60.99,-183.47 40.67,-44.16 101.34,-66.23 182.04,-66.23 51.46,0 97.21,10.16 137.24,30.49 40.03,20.34 60.04,44.16 60.04,71.48 0,15.25 -6.04,28.59 -18.11,40.03 -12.07,11.44 -27,17.16 -44.79,17.16 -12.07,0 -25.73,-4.77 -40.98,-14.3l-9.53 -5.72c-23.51,-15.25 -49.88,-22.87 -79.11,-22.87 -41.3,0 -70.68,11.44 -88.16,34.31 -17.47,22.87 -26.2,55.91 -26.2,99.12zm535.62 253.51l-13.34 0 0 124.85c0,16.52 -6.36,30.5 -19.07,41.94 -12.7,11.43 -28.27,17.15 -46.7,17.15 -18.42,0 -33.99,-5.72 -46.7,-17.15 -12.7,-11.44 -19.06,-25.42 -19.06,-41.94l0 -375.5c0,-15.89 6.36,-29.55 19.06,-40.99 12.71,-11.43 28.28,-17.15 46.7,-17.15 18.43,0 34,5.72 46.7,17.15 12.71,11.44 19.07,25.1 19.07,40.99l0 126.75 13.34 0 116.27 -157.25c13.34,-17.79 31.45,-26.69 54.33,-26.69 17.79,0 32.72,4.93 44.79,14.77 12.07,9.85 18.43,22.72 19.06,38.6 0,12.71 -3.49,24.15 -10.48,34.31l-120.09 158.21 120.09 158.21c6.99,10.17 10.48,21.6 10.48,34.31 -0.63,15.88 -6.99,28.75 -19.06,38.6 -12.07,9.85 -27,14.77 -44.79,14.77 -22.88,0 -40.99,-8.89 -54.33,-26.68l-116.27 -157.26zm365.02 16.2l24.78 -263.04c1.27,-15.25 6.99,-28.59 17.16,-40.03 10.16,-11.44 22.87,-17.16 38.12,-17.16l238.27 0c19.69,0 33.99,6.36 42.88,19.07 8.9,12.7 13.35,26.05 13.35,40.02l0 369.79c0,16.52 -6.36,30.5 -19.07,41.94 -12.7,11.43 -28.27,17.15 -46.7,17.15 -18.42,0 -33.99,-5.72 -46.7,-17.15 -12.7,-11.44 -19.06,-25.42 -19.06,-41.94l0 -321.18 -97.21 0 -18.11 210.63c-10.8,111.19 -58.45,166.78 -142.96,166.78 -57.81,0 -86.72,-18.42 -86.72,-55.28 0,-19.69 6.67,-34.94 20.01,-45.74 13.34,-10.8 27.96,-14.62 43.84,-11.44 6.35,1.27 10.48,1.91 12.39,1.91 14.61,0 23.19,-18.11 25.73,-54.33zm863.48 -130.57l0 177.27c0,6.99 0.95,12.55 2.86,16.68 1.9,4.13 3.81,6.67 5.71,7.63 1.91,0.95 5.56,2.38 10.96,4.28 5.41,1.91 9.06,3.18 10.96,3.82 14.62,5.72 21.93,17.79 21.93,36.21 0,33.04 -22.88,49.56 -68.63,49.56 -34.94,0 -61.94,-13.34 -81.01,-40.03 -35.58,28.6 -78.46,42.89 -128.66,42.89 -54,0 -95.78,-13.5 -125.33,-40.5 -29.54,-27.01 -44.31,-63.7 -44.31,-110.08l0 -2.86c0,-97.21 62.9,-145.82 188.7,-145.82 29.87,0 54.96,3.18 75.29,9.53l0 -30.5c0,-43.84 -24.14,-65.76 -72.43,-65.76 -18.42,0 -39.07,5.09 -61.95,15.25 -17.15,6.35 -29.22,9.53 -36.21,9.53 -18.43,0 -32.25,-5.72 -41.46,-17.15 -9.21,-11.44 -13.82,-24.15 -13.82,-38.13 0,-26.05 16.04,-45.74 48.13,-59.09 32.09,-13.34 70.37,-20.01 114.84,-20.01 67.99,0 117.39,16.36 148.2,49.08 30.82,32.72 46.23,82.12 46.23,148.2zm-199.19 91.5c-25.42,0 -42.73,4.92 -51.94,14.77 -9.22,9.85 -13.82,23.03 -13.82,39.55l0 2.86c0,15.89 4.6,27.16 13.82,33.83 9.21,6.68 24.3,10.01 45.27,10.01 27.95,0 52.73,-8.26 74.33,-24.78l0 -68.62c-25.41,-5.08 -47.97,-7.62 -67.66,-7.62zm448.89 -281.16l238.27 0c19.69,0 33.99,6.36 42.88,19.07 8.9,12.7 13.35,26.05 13.35,40.02l0 314.51 6.67 0c19.69,0 33.99,6.36 42.89,19.07 8.89,12.7 13.34,26.05 13.34,40.02l0 122.95c0,16.52 -6.35,30.5 -19.06,41.93 -12.71,11.44 -28.28,17.16 -46.7,17.16 -18.43,0 -33.99,-5.72 -46.7,-17.16 -12.71,-11.43 -19.06,-25.41 -19.06,-41.93l0 -74.34 -263.05 0 0 74.34c0,16.52 -6.35,30.5 -19.06,41.93 -12.71,11.44 -28.27,17.16 -46.7,17.16 -18.42,0 -33.99,-5.72 -46.7,-17.16 -12.71,-11.43 -19.06,-25.41 -19.06,-41.93l0 -122.95c0,-13.34 4.29,-26.52 12.87,-39.55 8.57,-13.02 23.03,-19.54 43.36,-19.54 28.59,-22.87 44.79,-70.52 48.61,-142.95l8.57 -173.46c0.64,-14.62 6.2,-27.8 16.68,-39.55 10.49,-11.76 23.35,-17.64 38.6,-17.64zm62.9 232.55c-3.17,57.18 -13.02,104.2 -29.54,141.05l129.61 0 0 -265.9 -95.3 0 -4.77 124.85z"/>
    <g>
     <path class="fil2" d="M3746.77 3371.14c-4.8,17.82 -14.67,33.66 -29.6,47.47 -0.04,0.04 -0.09,0.08 -0.14,0.12l0.14 0.15c-10.03,9.27 -21.45,16.33 -34.25,21.15 -12.47,4.7 -25.36,7.05 -38.58,7.05l-181.66 0c-13.33,0 -26.39,-2.37 -39.15,-7.12 -13.42,-5 -25.31,-12.39 -35.57,-22.15 -21.47,-20.41 -32.21,-45.4 -32.21,-74.9 0,-20.58 3.63,-38.67 10.87,-54.21l-0.11 -0.05c4.64,-10.02 10.26,-20.21 16.79,-30.52 0.04,-0.06 0.08,-0.13 0.12,-0.19l-0.12 -0.08c5.27,-8.29 12.35,-18 21.21,-29.08 7.59,-9.5 14.08,-17.29 19.44,-23.34 6.97,-7.89 13.11,-14.38 18.4,-19.43 1.21,-1.15 2.45,-2.25 3.72,-3.29 7.86,-7.51 12.6,-12.03 13.89,-13.2 8.45,-7.77 16.57,-15.16 24.29,-22.1 1.41,-1.27 2.86,-2.46 4.34,-3.59 0.85,-0.7 1.79,-1.5 2.85,-2.42 0.24,-0.21 0.48,-0.41 0.72,-0.61l8.71 -7.63c-5.35,1.84 -10.58,3.22 -15.65,4.12 -2.21,0.39 -4.41,0.66 -6.6,0.82 -4.42,0.58 -8.44,0.86 -12.08,0.86 -12.23,0 -24.47,-2.18 -36.69,-6.55l-0.08 0.23c-11.37,-4.06 -22.2,-10.34 -32.44,-18.82l-0.13 0.15c-11.57,-9.58 -20.5,-21.12 -26.75,-34.58 -0.96,-2.07 -1.8,-4.17 -2.53,-6.29 -4.43,-11.47 -6.65,-23.32 -6.65,-35.55 0,-49.41 28.53,-84.67 85.58,-105.74 16.83,-6.21 34.29,-10.98 52.32,-14.29 18.51,-3.4 36.37,-5.12 53.51,-5.12 26.74,0 51.49,3.89 74.21,11.64 24.55,8.37 46.1,21.09 64.6,38.1 18.67,17.18 32.78,36.86 42.28,58.98 2.12,4.95 4.01,9.98 5.66,15.1l25.28 -58.34 -0.02 -0.01c4.13,-10.6 9.87,-20.2 17.23,-28.74 6.9,-8 15.1,-14.89 24.61,-20.59 8.5,-5.09 17.31,-8.94 26.4,-11.49 9.75,-2.74 19.42,-4.1 28.96,-4.1 26.9,0 50.81,9.5 71.74,28.5 1.85,1.68 3.58,3.45 5.2,5.28 8.18,8.42 14.64,17.63 19.31,27.54 6.38,13.51 9.58,27.64 9.58,42.3 0,5.69 -0.62,11.96 -1.87,18.8 -0.27,1.46 -0.58,2.89 -0.94,4.31 -1.35,5.87 -3.18,11.4 -5.49,16.56 -0.12,0.27 -0.24,0.53 -0.37,0.79 9.72,4.36 18.76,10.21 27.08,17.52 11.03,9.69 19.53,21.03 25.42,33.94 0.89,1.96 1.72,3.93 2.49,5.91l58.5 -154.22c0.1,-0.26 0.2,-0.52 0.31,-0.78l-0.05 -0.02c9.27,-23.7 24.95,-41.61 46.99,-53.7 1.9,-1.04 3.83,-1.98 5.78,-2.83 9.44,-4.49 19.19,-7.47 29.25,-8.92 11.8,-1.7 23.87,-1.27 36.12,1.28 0.37,0.08 0.73,0.16 1.1,0.24 11.88,2.39 22.86,6.67 32.89,12.78 6.79,4.13 13.03,9.01 18.69,14.62 5.01,-0.71 10.1,-1.06 15.28,-1.06l176.69 0c13.74,0 26.86,2.42 39.41,7.19 12.78,4.87 24.4,12.17 34.79,21.83 10.71,9.93 18.91,21.34 24.57,34.16 5.8,13.14 8.72,27.02 8.72,41.54 0,7.41 -0.8,14.99 -2.42,22.73 -0.29,1.41 -0.63,2.8 -1.01,4.17 -1.39,5.58 -3.21,10.87 -5.45,15.83l0.01 0 -137.49 319.15c-1.11,2.59 -2.37,5.08 -3.76,7.46 -8.66,16.55 -20.47,29.64 -35.43,39.27 -16.9,10.91 -35.98,16.37 -57.21,16.37 -12.25,0 -24.05,-1.81 -35.35,-5.38 -11.58,-3.66 -22.51,-9.32 -32.75,-16.95 -12.49,-9.29 -22.19,-20.79 -29.01,-34.43 -6.91,-13.83 -10.38,-28.35 -10.38,-43.55 0,-15.47 2.96,-29.71 8.85,-42.69 0.32,-0.72 0.66,-1.42 1,-2.12l78.16 -178.45 -21.94 0c-8.78,0 -17.45,-1.11 -26.01,-3.32l-106.22 279.65c-0.1,0.26 -0.2,0.52 -0.31,0.78l0.05 0.02c-4.48,11.45 -10.87,21.86 -19.14,31.22 -8.12,9.2 -17.78,16.82 -28.92,22.75 -10.58,5.66 -21.63,9.47 -33.12,11.36 -11.55,1.9 -23.18,1.88 -34.87,-0.07 -2.38,-0.4 -4.71,-0.91 -6.98,-1.54 -10.97,-2.59 -21.17,-6.68 -30.52,-12.31 -6.19,-3.7 -11.92,-7.98 -17.19,-12.83 -0.91,0.37 -1.83,0.72 -2.75,1.06l0.03 0.08c-12.17,4.48 -24.85,6.72 -38.05,6.72 -13.19,0 -25.88,-2.25 -38.04,-6.72 -1.85,-0.68 -3.65,-1.43 -5.41,-2.25 -10.67,-4.59 -20.3,-10.75 -28.84,-18.43 -2.04,-1.84 -3.94,-3.77 -5.71,-5.79 -7.96,-8.37 -14.3,-17.86 -18.98,-28.41 -2.7,-6.08 -4.78,-12.24 -6.25,-18.47l-56.34 0c-2.9,0 -5.75,-0.1 -8.56,-0.29zm-75.37 -50.87c7.36,6.62 11.04,14.72 11.04,24.29 0,9.57 -3.68,17.77 -11.04,24.58 -7.37,6.81 -16.39,10.21 -27.06,10.21l-181.66 0c-11.41,0 -20.8,-3.5 -28.16,-10.49 -7.36,-7 -11.04,-15.65 -11.04,-25.95 0,-11.05 1.47,-19.7 4.41,-25.95 7,-15.1 16.75,-30.46 29.27,-46.11 12.51,-15.64 23.1,-27.61 31.75,-35.89 8.65,-8.28 22.17,-20.71 40.58,-37.27 1.84,-1.47 8.1,-6.9 18.77,-16.29 10.68,-9.39 17.86,-16.01 21.54,-19.88 3.68,-3.86 9.02,-9.84 16.01,-17.94 6.99,-8.1 11.78,-15.83 14.36,-23.19 2.57,-7.37 3.86,-14.91 3.86,-22.64 0,-14.73 -4.51,-26.78 -13.53,-36.17 -9.01,-9.38 -21.81,-14.08 -38.37,-14.08 -16.93,0 -32.39,2.95 -46.38,8.84 -2.58,1.1 -6.35,3.03 -11.32,5.79 -4.97,2.76 -9.66,4.97 -14.08,6.63 -4.42,1.66 -9.02,2.48 -13.81,2.48 -9.93,0 -18.68,-3.12 -26.22,-9.38 -7.55,-6.26 -11.32,-14.36 -11.32,-24.3 0,-18.03 13.71,-32.11 41.13,-42.24 27.43,-10.12 54.94,-15.18 82.55,-15.18 39.02,0 70.03,10.58 93.04,31.75 23.01,21.16 34.51,47.94 34.51,80.34 0,39.38 -14.54,74.17 -43.62,104.36 -7.36,7.73 -25.58,24.66 -54.66,50.79 -29.08,26.14 -49.33,47.12 -60.74,62.95l123.13 0c10.67,0 19.69,3.31 27.06,9.94zm281.6 -16.57l0 45.28c0,9.94 -3.68,18.22 -11.04,24.85 -7.36,6.62 -16.38,9.94 -27.06,9.94 -10.67,0 -19.69,-3.32 -27.05,-9.94 -7.37,-6.63 -11.05,-14.91 -11.05,-24.85l0 -45.28 -121.47 0c-11.41,0 -20.8,-3.68 -28.16,-11.04 -7.36,-7.36 -11.05,-16.2 -11.05,-26.5 0,-4.79 1.84,-11.23 5.53,-19.33l106.01 -244.61c2.58,-6.62 7.09,-11.87 13.53,-15.73 6.44,-3.87 13.34,-5.8 20.7,-5.8 9.58,0 18.32,3.59 26.23,10.77 7.92,7.18 11.87,15.55 11.87,25.12 0,4.79 -0.73,8.84 -2.21,12.15 -10.67,24.66 -25.67,58.99 -45,102.98 -19.32,43.98 -34.32,78.31 -45,102.97l69.02 0 0 -84.48c0,-9.94 3.68,-18.22 11.05,-24.84 7.36,-6.63 16.38,-9.94 27.05,-9.94 10.31,0 19.24,3.31 26.78,9.94 7.55,6.62 11.32,14.9 11.32,24.84l0 84.48 7.18 0c10.31,0 19.05,3.41 26.23,10.22 7.17,6.81 10.76,14.82 10.76,24.02 0,9.57 -3.59,17.76 -10.76,24.57 -7.18,6.81 -15.92,10.21 -26.23,10.21l-7.18 0zm251.79 -295.4l-141.35 372.15c-3.32,8.47 -8.93,14.82 -16.84,19.05 -7.92,4.24 -16.29,5.62 -25.13,4.15 -10.3,-1.85 -18.59,-6.81 -24.85,-14.91 -6.25,-8.1 -7.91,-16.38 -4.96,-24.85l144.11 -379.89c3.31,-8.46 8.83,-14.81 16.56,-19.05 7.73,-4.23 16.02,-5.43 24.85,-3.59 9.2,1.48 16.75,6.08 22.64,13.81 5.89,7.73 8.47,16.01 7.73,24.85 -0.37,2.94 -1.29,5.7 -2.76,8.28zm270.56 18.22c0,6.63 -1.1,11.96 -3.31,16.01l-137.49 319.15c-6.63,14.73 -18.04,22.09 -34.23,22.09 -10.68,0 -19.97,-2.95 -27.89,-8.84 -7.91,-5.89 -11.87,-13.8 -11.87,-23.74 0,-5.89 0.92,-10.86 2.76,-14.91l120.92 -276.08 -125.34 0c-9.94,0 -18.68,-3.4 -26.22,-10.21 -7.55,-6.81 -11.32,-15.19 -11.32,-25.13 0,-9.57 3.68,-17.85 11.04,-24.84 7.36,-7 16.2,-10.49 26.5,-10.49l176.69 0c11.05,0 20.43,3.58 28.16,10.76 7.73,7.18 11.6,15.92 11.6,26.23z"/>
     <path class="fil6" d="M3671.4 3320.27c7.36,6.62 11.04,14.72 11.04,24.29 0,9.57 -3.68,17.77 -11.04,24.58 -7.37,6.81 -16.39,10.21 -27.06,10.21l-181.66 0c-11.41,0 -20.8,-3.5 -28.16,-10.49 -7.36,-7 -11.04,-15.65 -11.04,-25.95 0,-11.05 1.47,-19.7 4.41,-25.95 7,-15.1 16.75,-30.46 29.27,-46.11 12.51,-15.64 23.1,-27.61 31.75,-35.89 8.65,-8.28 22.17,-20.71 40.58,-37.27 1.84,-1.47 8.1,-6.9 18.77,-16.29 10.68,-9.39 17.86,-16.01 21.54,-19.88 3.68,-3.86 9.02,-9.84 16.01,-17.94 6.99,-8.1 11.78,-15.83 14.36,-23.19 2.57,-7.37 3.86,-14.91 3.86,-22.64 0,-14.73 -4.51,-26.78 -13.53,-36.17 -9.01,-9.38 -21.81,-14.08 -38.37,-14.08 -16.93,0 -32.39,2.95 -46.38,8.84 -2.58,1.1 -6.35,3.03 -11.32,5.79 -4.97,2.76 -9.66,4.97 -14.08,6.63 -4.42,1.66 -9.02,2.48 -13.81,2.48 -9.93,0 -18.68,-3.12 -26.22,-9.38 -7.55,-6.26 -11.32,-14.36 -11.32,-24.3 0,-18.03 13.71,-32.11 41.13,-42.24 27.43,-10.12 54.94,-15.18 82.55,-15.18 39.02,0 70.03,10.58 93.04,31.75 23.01,21.16 34.51,47.94 34.51,80.34 0,39.38 -14.54,74.17 -43.62,104.36 -7.36,7.73 -25.58,24.66 -54.66,50.79 -29.08,26.14 -49.33,47.12 -60.74,62.95l123.13 0c10.67,0 19.69,3.31 27.06,9.94zm281.6 -16.57l0 45.28c0,9.94 -3.68,18.22 -11.04,24.85 -7.36,6.62 -16.38,9.94 -27.06,9.94 -10.67,0 -19.69,-3.32 -27.05,-9.94 -7.37,-6.63 -11.05,-14.91 -11.05,-24.85l0 -45.28 -121.47 0c-11.41,0 -20.8,-3.68 -28.16,-11.04 -7.36,-7.36 -11.05,-16.2 -11.05,-26.5 0,-4.79 1.84,-11.23 5.53,-19.33l106.01 -244.61c2.58,-6.62 7.09,-11.87 13.53,-15.73 6.44,-3.87 13.34,-5.8 20.7,-5.8 9.58,0 18.32,3.59 26.23,10.77 7.92,7.18 11.87,15.55 11.87,25.12 0,4.79 -0.73,8.84 -2.21,12.15 -10.67,24.66 -25.67,58.99 -45,102.98 -19.32,43.98 -34.32,78.31 -45,102.97l69.02 0 0 -84.48c0,-9.94 3.68,-18.22 11.05,-24.84 7.36,-6.63 16.38,-9.94 27.05,-9.94 10.31,0 19.24,3.31 26.78,9.94 7.55,6.62 11.32,14.9 11.32,24.84l0 84.48 7.18 0c10.31,0 19.05,3.41 26.23,10.22 7.17,6.81 10.76,14.82 10.76,24.02 0,9.57 -3.59,17.76 -10.76,24.57 -7.18,6.81 -15.92,10.21 -26.23,10.21l-7.18 0zm251.79 -295.4l-141.35 372.15c-3.32,8.47 -8.93,14.82 -16.84,19.05 -7.92,4.24 -16.29,5.62 -25.13,4.15 -10.3,-1.85 -18.59,-6.81 -24.85,-14.91 -6.25,-8.1 -7.91,-16.38 -4.96,-24.85l144.11 -379.89c3.31,-8.46 8.83,-14.81 16.56,-19.05 7.73,-4.23 16.02,-5.43 24.85,-3.59 9.2,1.48 16.75,6.08 22.64,13.81 5.89,7.73 8.47,16.01 7.73,24.85 -0.37,2.94 -1.29,5.7 -2.76,8.28zm270.56 18.22c0,6.63 -1.1,11.96 -3.31,16.01l-137.49 319.15c-6.63,14.73 -18.04,22.09 -34.23,22.09 -10.68,0 -19.97,-2.95 -27.89,-8.84 -7.91,-5.89 -11.87,-13.8 -11.87,-23.74 0,-5.89 0.92,-10.86 2.76,-14.91l120.92 -276.08 -125.34 0c-9.94,0 -18.68,-3.4 -26.22,-10.21 -7.55,-6.81 -11.32,-15.19 -11.32,-25.13 0,-9.57 3.68,-17.85 11.04,-24.84 7.36,-7 16.2,-10.49 26.5,-10.49l176.69 0c11.05,0 20.43,3.58 28.16,10.76 7.73,7.18 11.6,15.92 11.6,26.23z"/>
    </g>
   </g>
  </g>
  <path class="fil3" d="M3764.23 3056.64c-37.71,16.53 -49.45,-7.06 -62.18,-35.06 -12.73,-28 -21.18,-64.17 -87.32,-65.49 -66.14,-1.32 -154.31,28.32 -165.79,-3.7 -11.48,-32.02 -9.22,-97.84 44.75,-109.41 53.97,-11.57 404.81,-14.58 531.81,-9.29 127,5.29 322.17,14.3 264.59,68.79 -57.58,54.49 -70.09,106.32 -71.75,116.74 -1.66,10.42 -12.01,54.66 27.31,62.3 39.32,7.64 72.88,-10.41 70.98,24.08 -1.9,34.49 6.05,101.95 -44.89,85.42 -50.94,-16.53 -81.68,-69.78 -72.42,-110.13 9.26,-40.35 17.52,-110.14 15.87,-117.75 -1.65,-7.61 -52.94,-69.78 -94.61,-20.17 -41.67,49.61 -68.8,103.18 -71.44,132.95 -2.64,29.77 15.89,78.72 -21.82,60.2 -37.71,-18.52 -97.24,0.01 -97.9,-68.79 -0.66,-68.8 17.86,-116.43 -9.26,-121.72 -27.12,-5.29 -54.91,-23.82 -87.98,13.23 -33.07,37.05 -67.95,97.8 -67.95,97.8z"/>
 </g>
</svg>
