<svg width="21" height="20" viewBox="0 0 21 20" fill="none" xmlns="http://www.w3.org/2000/svg">
<path fill-rule="evenodd" clip-rule="evenodd" d="M19.7157 17.9638L14.2766 12.4857C15.2516 11.1469 15.7738 9.52837 15.7666 7.86832C15.748 3.53505 12.2667 0.0251076 7.96261 7.96008e-05C5.90286 -0.0093027 3.92493 0.811057 2.46946 2.27841C1.01398 3.74575 0.201855 5.7382 0.214001 7.81189C0.232605 12.1456 3.71418 15.6558 8.01866 15.6808C9.67426 15.6881 11.2878 15.1561 12.6184 14.1643L12.6241 14.1601L18.0583 19.6339C18.3521 19.9442 18.7899 20.0698 19.202 19.9621C19.6142 19.8543 19.936 19.5301 20.0427 19.115C20.1493 18.7 20.0242 18.2593 19.7157 17.9638ZM8.01262 14.1121C4.56923 14.0922 1.78401 11.2843 1.7689 7.81751C1.7596 6.15878 2.40936 4.56514 3.57352 3.39135C4.73768 2.21756 6.31963 1.56103 7.96722 1.56792C11.4106 1.58787 14.1958 4.39577 14.2109 7.86252C14.2202 9.52125 13.5705 11.1149 12.4063 12.2887C11.2422 13.4625 9.66021 14.119 8.01262 14.1121Z" fill="#B5B5B5"/>
</svg>
