<svg width="17" height="17" viewBox="0 0 17 17" fill="none" xmlns="http://www.w3.org/2000/svg">
<path fill-rule="evenodd" clip-rule="evenodd" d="M10.6411 5.42632C12.0608 4.95192 11.2156 6.78812 10.9903 7.41672C10.6829 8.27422 10.3903 9.12422 10.0939 9.97422C9.9221 10.467 9.4739 12.2801 8.9365 12.3359C8.4745 12.3838 8.2916 11.8696 8.0937 11.465C7.5484 10.3505 7.4441 9.74672 6.7039 9.39192C6.013 9.06072 4.6241 8.54242 4.545 8.01042C4.4636 7.46302 4.9895 7.39622 5.4311 7.24412C7.2002 6.63492 8.8879 6.01202 10.6411 5.42632ZM16.4521 9.15602C16.9988 4.29002 13.4654 0.60902 9.2791 0.0692197C4.5033 -0.54658 0.671902 3.03752 0.152502 7.19342C-0.457198 12.0705 3.1516 15.8401 7.3172 16.353C12.1328 16.9461 15.9834 13.3272 16.4521 9.15602Z" fill="white" fill-opacity="0.5"/>
</svg>
