<svg width="26" height="23" viewBox="0 0 26 23" fill="none" xmlns="http://www.w3.org/2000/svg">
<path fill-rule="evenodd" clip-rule="evenodd" d="M11.7844 4.59682C14.3647 4.15576 16.395 6.03038 16.7575 8.15764C17.2091 10.8082 15.3543 12.8812 13.2517 13.2537C10.6922 13.7072 8.56149 11.832 8.23752 9.66879C7.83963 7.01205 9.60002 4.97022 11.7844 4.59682ZM19.7507 23C20.0687 22.9035 20.9263 22.0852 21.1639 21.8581C22.4168 20.6606 23.5561 18.9507 24.1857 17.2397C25.1855 14.5228 25.321 11.302 24.2961 8.53523C23.462 6.28344 22.4044 4.67368 20.7186 3.15504C15.2819 -1.74266 6.88264 -0.843409 2.43906 5.19352C-0.929347 9.76977 -0.753847 16.0698 2.65053 20.5348C3.04172 21.0478 4.66229 22.8217 5.24483 22.9997C5.24483 20.8208 4.90695 18.658 6.55697 17.1298C8.16406 15.6414 9.95505 15.9631 12.499 15.9631C15.0325 15.9631 16.8475 15.638 18.441 17.1299C20.1137 18.6959 19.7349 20.7969 19.7507 23Z" fill="white"/>
</svg>
