<svg width="17" height="17" viewBox="0 0 17 17" fill="none" xmlns="http://www.w3.org/2000/svg">
<path fill-rule="evenodd" clip-rule="evenodd" d="M5.57116 4.40024C6.49016 4.17294 6.57516 4.74114 6.81046 5.32644C7.17946 6.24404 7.39436 6.40114 7.03946 6.90004C6.94346 7.03504 6.89396 7.09194 6.77746 7.21564C6.70916 7.28804 6.56426 7.41654 6.56136 7.53344C6.55256 7.88334 7.42796 8.81294 7.73446 9.10454C8.16196 9.51144 8.83336 9.93444 9.43276 10.1523C9.65246 10.2322 9.72386 10.1434 9.83876 10.0284C10.8452 9.02094 10.0747 8.76774 12.1484 9.75484C12.5689 9.95504 12.7147 9.96224 12.7182 10.2842C12.7213 10.5651 12.6231 10.985 12.5132 11.1785C12.4157 11.3504 12.1139 11.6137 11.9293 11.7206C10.9984 12.2597 10.2604 12.0528 9.26356 11.7037C8.68396 11.5006 8.21756 11.2787 7.76336 10.9943C7.26326 10.6813 6.64836 10.1583 6.26346 9.70434L6.00716 9.41944C5.84466 9.21614 5.69256 9.02333 5.53416 8.80324C5.23086 8.38183 4.92706 7.99114 4.69306 7.43704C4.12556 6.09324 4.73916 4.60604 5.57116 4.40024ZM8.57826 16.2795C10.876 16.2795 12.7364 15.3575 14.2648 13.9445C15.0437 13.2243 15.4487 12.4948 15.9379 11.6018C16.0417 11.4122 16.1664 11.0943 16.236 10.8893C16.6421 9.69314 16.7134 9.08774 16.7131 7.82484C16.7128 6.19524 16.0326 4.65624 15.2273 3.45374C15.0353 3.16694 14.5929 2.65284 14.3345 2.39444C14.074 2.13394 13.5657 1.68934 13.2756 1.50144C12.2744 0.852938 11.7444 0.563941 10.5993 0.272141C9.56896 0.0095409 9.25486 0.015637 8.25256 0.015637C6.56456 0.015737 4.71576 0.844639 3.50266 1.81014C0.723256 4.02234 -0.312443 7.83174 1.08806 11.2645C1.34476 11.8936 1.58876 12.0364 1.48066 12.4479L0.785957 15.0097C0.672457 15.4229 0.570159 15.8854 0.443359 16.2938C1.56626 15.985 3.33466 15.5915 4.53455 15.3192C4.79015 15.2613 4.78336 15.3165 4.99846 15.4234C6.08496 15.9633 7.30876 16.2795 8.57826 16.2795Z" fill="white" fill-opacity="0.5"/>
</svg>
