<svg width="17" height="17" viewBox="0 0 17 17" fill="none" xmlns="http://www.w3.org/2000/svg">
<path fill-rule="evenodd" clip-rule="evenodd" d="M4.07141 0.172852H12.0002C14.2395 0.172852 16.0715 2.00475 16.0715 4.24415V12.1729C16.0715 14.4122 14.2395 16.2442 12.0002 16.2442H4.07141C1.83201 16.2442 0 14.4122 0 12.1729V4.24415C0 2.00475 1.83201 0.172852 4.07141 0.172852ZM2.01641 5.26715V5.42525L2.31891 6.10005C2.66161 6.87025 3.24081 7.92645 3.70391 8.63915C3.96891 9.04695 4.658 9.98885 4.9812 10.3038C5.6118 10.9186 6.6242 11.5504 7.5932 11.6046C7.8986 11.6218 8.2645 11.6121 8.5742 11.6077C9.3237 11.5968 8.8772 10.9117 9.2244 10.3033C9.7643 9.35705 10.4693 11.1806 11.3933 11.5454C11.7172 11.6733 11.9175 11.6319 12.2858 11.6274C12.6083 11.6233 12.9253 11.6154 13.2473 11.6112C13.5516 11.6073 13.8942 11.6127 14.012 11.4004C14.3087 10.8655 12.7527 9.54745 12.3812 9.15395C11.9169 8.66206 12.035 8.52255 12.5076 7.89325C12.9715 7.27555 13.7608 6.33145 14.0127 5.59445L14.0551 5.49285V5.32175C13.9793 5.17975 13.9787 5.15365 13.7898 5.10785C13.6348 5.07025 11.533 5.09285 11.4403 5.11565C11.2264 5.16835 11.1544 5.46855 11.0657 5.68345C10.765 6.41215 10.0894 7.60765 9.6012 8.00735C9.3309 8.22855 9.1544 8.09795 9.0785 7.78405C9.0145 7.51925 9.0409 7.18155 9.0486 6.90325C9.0574 6.58385 9.0594 6.27845 9.0725 5.96075C9.085 5.65865 9.1021 5.35715 8.9932 5.09965C8.8347 4.72475 7.8736 4.78175 7.4396 4.78465C7.0862 4.78705 6.0755 4.78555 6.0119 5.25765C6.2458 5.31765 6.3617 5.32505 6.5177 5.47825C6.8329 5.78765 6.77641 6.97065 6.72931 7.38235C6.68641 7.75675 6.6128 8.37865 6.1294 8.05905C5.6284 7.72775 5.03401 6.40415 4.73601 5.79795C4.66541 5.65465 4.5925 5.42175 4.5079 5.29575C4.2996 4.98525 3.73241 5.08705 3.28601 5.08885C3.04231 5.08995 2.7986 5.09185 2.5549 5.09295C2.2133 5.09455 2.18701 5.08825 2.01641 5.26715Z" fill="white" fill-opacity="0.5"/>
</svg>
