<svg width="19" height="19" viewBox="0 0 19 19" fill="none" xmlns="http://www.w3.org/2000/svg">
<path fill-rule="evenodd" clip-rule="evenodd" d="M6.58667 0H12.4133C17.7333 0 19 1.26667 19 6.58667V12.4133C19 17.7333 17.7333 19 12.4133 19H6.58667C1.26667 19 0 17.7333 0 12.4133V6.58667C0 1.26667 1.26667 0 6.58667 0Z" fill="#2787F5"/>
<path fill-rule="evenodd" clip-rule="evenodd" d="M15.5597 6.54539C15.6477 6.25184 15.5597 6.03613 15.1407 6.03613H13.7553C13.403 6.03613 13.2406 6.22247 13.1525 6.42795C13.1525 6.42795 12.448 8.14523 11.4499 9.26071C11.127 9.58361 10.9803 9.68635 10.8041 9.68635C10.7161 9.68635 10.5886 9.58361 10.5886 9.29008V6.5454C10.5886 6.19313 10.4864 6.03613 10.1928 6.03613H8.01569C7.79556 6.03613 7.66317 6.19963 7.66317 6.35458C7.66317 6.68852 8.16217 6.76553 8.21361 7.70491V9.74508C8.21361 10.1924 8.13283 10.2735 7.9567 10.2735C7.48703 10.2735 6.34458 8.54853 5.66699 6.57474C5.53421 6.1911 5.40102 6.03613 5.04694 6.03613H3.66153C3.26569 6.03613 3.18652 6.22247 3.18652 6.42795C3.18652 6.7949 3.65621 8.61491 5.37346 11.022C6.51829 12.6659 8.13128 13.557 9.59903 13.557C10.4797 13.557 10.5886 13.359 10.5886 13.0181V11.7757C10.5886 11.3799 10.672 11.3009 10.9509 11.3009C11.1564 11.3009 11.5087 11.4036 12.3306 12.1962C13.27 13.1356 13.4248 13.557 13.9532 13.557H15.3386C15.7344 13.557 15.9324 13.3591 15.8182 12.9685C15.6932 12.5792 15.2448 12.0144 14.6497 11.3449C14.3267 10.9633 13.8424 10.5524 13.6956 10.3468C13.4901 10.0827 13.5488 9.96522 13.6956 9.7304C13.6956 9.7304 15.3835 7.35264 15.5597 6.54539Z" fill="white"/>
</svg>
